<svg xmlns:svg="http://www.w3.org/2000/svg" xmlns="http://www.w3.org/2000/svg" version="1.1" id="svg2" x="0" y="0" viewBox="4.9 0 1417.3 1417.3" enable-background="new 4.9 0 1417.3 1417.3" xml:space="preserve"><filter width="1.078" height="1.264" id="filter4767" y="-0.132" x="-0.039"><feGaussianBlur id="feGaussianBlur4769" stdDeviation="20.411"/><feBlend id="feBlend4771" in2="BackgroundImage" mode="lighten"/></filter><filter width="1.387" height="1.337" id="filter3869" y="-0.168" x="-0.193"><feGaussianBlur id="feGaussianBlur3871" stdDeviation="1.137"/><feBlend id="feBlend3873" in2="BackgroundImage" mode="darken"/></filter><filter id="filter11149"><feGaussianBlur id="feGaussianBlur11151" stdDeviation="1.003"/><feBlend id="feBlend11153" in2="BackgroundImage" mode="screen"/></filter><linearGradient id="SVGID_1_" gradientUnits="userSpaceOnUse" x1="713.595" y1="0" x2="713.595" y2="1417.323"><stop offset="0.226" stop-color="#FFFFFF"/><stop offset="1" stop-color="#1326AA"/></linearGradient><rect x="4.9" y="0" fill="url(#SVGID_1_)" width="1417.3" height="1417.3"/><g id="g10384" transform="translate(186.14198,1045.4175)"><path id="path3527" d="M995.8-55.6c0 0 16.6-121.7 18.4-125.2 1.8-3.5 48.2-84 48.2-84l46.4-14.9 44.7 56 -7.9 63.9 -11.4 39.4 -141 68.3L995.8-55.6z"/><path id="path3525" d="M663.4 15.4L452.9 86 415.8-52.7l90.4-137.4 143.6-28.5 48.3 121.3 -11.1 80.5L663.4 15.4 663.4 15.4z"/><g id="path3515" filter="url(#filter4767)"><path d="M65-8.5c-33 75-128.3 105-14.7 123.8 113.6 18.8 212.6 45 326.2 33.8 113.6-11.3 252.9-22.5 274.9-37.5 22-15 66-30 135.6-56.3S952 17.8 1014.3-1c62.3-18.8 124.6 0 139.3-26.3C1168.2-53.5 1025.3-241 842-188.5S72.3-8.5 65-8.5L65-8.5z"/></g><path id="path2539" fill="#4A477D" d="M609.8-380.6c-46.9 0.5-60.6 4.6-84.7 11.2 0 0-62.6 33-88.5 49.4 -15.6 9.9-49.1 34.5-76.5 56.3l-42 11.1c0 0-100.6 1.9-123.1 3.3 -21.7 1.3-90.9 16.4-108.8 22.8s-60.4 29.3-88.4 53.5c-14 12.1-34.1 35.2-38 50.9 -4 15.9-11.1 85.9-0.2 121.3 0 0 47.3 22 100.7 36.8 53.4 14.8 265 52.2 265 52.2s126.1 0 136.3-5.1c10.2-5.1 0-12.7 1.3-24.2 1.3-11.5 0.2-43.9 3.5-79.8 3.2-35.6 15.7-78.2 37.3-110 21.7-31.8 53-53.6 87.4-52.7 45.9 1.3 74.1 44.2 78.1 63.7 6.2 30.1 8.3 65 5.8 81.6 -2.5 16.6-14.5 51.3-14.5 51.3l6.4 3.8c0 0 42-6.4 81.5-19.1 39.5-12.7 159.3-42 180.9-47.1 21.7-5.1 86.6-21.7 94.3-26.8 7.6-5.1 5.1-12.7 5.1-12.7 0 0 2.3-32 6.1-56.2 2.9-18.3 6.5-37.3 15.6-58.9 9-21.6 19.9-46.9 49.1-47.3 29.8 2 36.2 44.8 37.6 62.7 1.4 18.2-8.5 67.7-8.5 67.7s14.6-9.4 19.7-15.8c5.1-6.4 15.2-20.4 15.4-45.1 0.1-11.5 0.7-69.6-1.8-86.2 -2.5-16.6-17.8-43-28-49.4 -10.2-6.4-111.6-7.7-111.6-7.7 -29.3 0.3-46.3 13.4-83.9 1.3 0 0-20.6-5.1-28.2-6.4 -7.6-1.3-6.4 1.7-17.8-5.9 -11.5-7.6-25.4-7.5-40.7-5 -15.3 2.5-13.2 17.3-13.2 17.3l-38.1 0.9 23.2-41.7c0 0-7.1-9.8-21.1-13.7 -14-3.8-52.6-6-109.5-5.8C691.2-384.1 618.1-381 609.8-380.6L609.8-380.6z"/><g id="g3999" transform="matrix(0.51017345,0,0,0.7581366,723.81605,-1376.1998)"><radialGradient id="path3921_1_" cx="-1559.927" cy="-612.973" r="94.276" gradientTransform="matrix(0.5343 0 0 -1.0399 1523.0833 992.0259)" gradientUnits="userSpaceOnUse"><stop offset="0" stop-color="#110A12"/><stop offset="0.67" stop-color="#291D2B"/><stop offset="0.778" stop-color="#1B0F1B"/><stop offset="0.887" stop-color="#1A0E1A"/><stop offset="1" stop-color="#0C050D"/></radialGradient><path id="path3921" fill="url(#path3921_1_)" d="M788.3 1629.4c0 71.4-44.2 129.3-98.7 129.3s-98.7-57.9-98.7-129.3c0-71.4 44.2-129.3 98.7-129.3C744.1 1500.1 788.3 1558.1 788.3 1629.4z"/><radialGradient id="path3943_1_" cx="-1557.563" cy="-639.93" r="94.934" gradientTransform="matrix(0.5343 0 0 -1.0099 1549.2108 983.1936)" gradientUnits="userSpaceOnUse"><stop offset="0" stop-color="#110A12"/><stop offset="0.703" stop-color="#463545"/><stop offset="0.778" stop-color="#57485B"/><stop offset="0.929" stop-color="#2B1D2E"/><stop offset="1" stop-color="#2E1F32"/></radialGradient><radialGradient id="path3943_2_" cx="-1557.555" cy="-639.93" r="95.026" gradientTransform="matrix(0.5343 0 0 -1.0099 1549.2108 983.1935)" gradientUnits="userSpaceOnUse"><stop offset="0" stop-color="#000000"/><stop offset="1" stop-color="#2E1F32"/></radialGradient><path id="path3943" fill="url(#path3943_1_)" stroke="url(#path3943_2_)" stroke-width="1.5" d="M811.3 1629.4c0 69.4-44.2 125.8-98.7 125.8s-98.7-56.4-98.7-125.8 44.2-125.8 98.7-125.8C767 1503.6 811.3 1560 811.3 1629.4z"/><path id="path3997" fill="#FCFBFD" d="M788.1 1639.1c-5.5 57.2-44.4 100.3-86.9 96.1 -42.5-4.2-72.6-54-67.2-111.2 5.5-57.2 44.4-100.3 86.9-96.1C763.4 1532 793.5 1581.8 788.1 1639.1z"/></g><radialGradient id="path3132_1_" cx="722.748" cy="-1636.072" r="29.839" gradientTransform="matrix(1.546 -0.2813 -0.1459 -0.8022 -452.2471 -1415.348)" gradientUnits="userSpaceOnUse"><stop offset="0" stop-color="#191C26"/><stop offset="1" stop-color="#14135F"/></radialGradient><path id="path3132" fill="url(#path3132_1_)" d="M898.5-329.9c0 0 5.1-1.3 13.1 0 8 1.3 38.5 14.3 40.1 16.6 1.6 2.2-13.4 10.2-13.4 10.2s-9.9-2.2-11.5 1.9 -8 12.4-8 12.4l-26.8 7L898.5-329.9 898.5-329.9z"/><linearGradient id="path3976_1_" gradientUnits="userSpaceOnUse" x1="556.044" y1="-1557.158" x2="556.713" y2="-1619.955" gradientTransform="matrix(1 0 0 -1 244.9291 -1882.4305)"><stop offset="0" stop-color="#5F57C7"/><stop offset="0.092" stop-color="#2C2584"/><stop offset="0.267" stop-color="#0A0D1E"/><stop offset="0.589" stop-color="#0A0C21"/><stop offset="1" stop-color="#11131F"/></linearGradient><path id="path3976" fill="url(#path3976_1_)" d="M785.4-324.8l64.3-1 -11.5 62.4 -85.4 11.1L785.4-324.8 785.4-324.8z"/><path id="path3974" fill="#918EA5" d="M834.8-293.3c0 0-9.6 6.4-17.2 15.3s-15.9 21.3-15.9 21.3h27.4L834.8-293.3 834.8-293.3z"/><path id="path3513" fill="#6E6288" d="M750.1-200l184.5-34.7h70.6l44.6 35.9c0 0-11.1 31-14.9 52 -3.7 21-5 59.4-7.4 64.4 -2.5 5-2.5 9.9-16.1 12.4 -13.6 2.5-128.8 22.3-133.7 22.3 -5 0-209.2 68.1-214.2 68.1 -5 0-1.2-8.7 5-27.2 6.2-18.6 14.9-83 6.2-104s6.2-63.1 6.2-63.1L750.1-200 750.1-200z"/><g id="g3483" transform="translate(0,-1500)"><path id="path3459" fill="#BAC5D5" d="M826.4 1217.3c0 0 8.7-37.2 11.6-43.6 3-6.5 5.4-11.4 15.5-14.2 10.1-2.8 21.8-4.1 32-1.3 10.1 2.8 15 7.3 17.8 13.5 6.9 18.5 12 33.1 15.4 52.5 0.7 5.3-93.6-5.3-93.6-5.3L826.4 1217.3 826.4 1217.3z"/><radialGradient id="path3463_1_" cx="555.311" cy="218.074" r="38.753" gradientTransform="matrix(1.1351 -0.5113 -0.6576 -1.4598 370.7645 1807.6803)" gradientUnits="userSpaceOnUse"><stop offset="0" stop-color="#9893AA"/><stop offset="0.496" stop-color="#9E99B0"/><stop offset="0.719" stop-color="#BAB9CE"/><stop offset="0.865" stop-color="#CACCDD"/><stop offset="1" stop-color="#CACDDC"/></radialGradient><path id="path3463" fill="url(#path3463_1_)" d="M901.3 1230.8c0 0-0.9-47.3-2.6-53s-6.1-16.6-13.6-20.1 -20.1-3.9-24.1-3.1 -15.3 2.6-18.8 6.1c-3.5 3.5-14.4 39.8-15.3 45.1 -0.9 5.3-5.3 15.8-1.8 19.3C828.6 1228.6 901.3 1232.5 901.3 1230.8L901.3 1230.8z"/></g><path id="path3457" fill="#09080B" d="M616.4-271.8l-18 1.2 1.2-23.5 79.9-19.8 -9.3 50.1L616.4-271.8 616.4-271.8z"/><linearGradient id="path3437_1_" gradientUnits="userSpaceOnUse" x1="350.917" y1="-1562.926" x2="353.083" y2="-1575.362" gradientTransform="matrix(1 0 0 -1 195.1497 -1842.7411)"><stop offset="0" stop-color="#2D2E40"/><stop offset="1" stop-color="#000000"/></linearGradient><path id="path3437" fill="url(#path3437_1_)" d="M488.5-268.5c1.8-0.4 53.4-14 74.9-17.9 21.4-3.9 41.6-7 41.6-7l0.4 25 -118.2 2.2L488.5-268.5 488.5-268.5z"/><linearGradient id="path3447_1_" gradientUnits="userSpaceOnUse" x1="424.337" y1="-1563.729" x2="470.301" y2="-1563.729" gradientTransform="matrix(1 0 0 -1 187.1395 -1849.6025)"><stop offset="0" stop-color="#444053"/><stop offset="1" stop-color="#191826"/></linearGradient><path id="path3447" fill="url(#path3447_1_)" d="M613.2-277.6l0.4-15.3 49.5-7 -1.3 3.9c0 0-40.3 3.9-41.1 5.7 -0.9 1.8 33.9 7.9 33.9 7.9l-43.1 10.5L613.2-277.6 613.2-277.6z"/><path id="path3427" d="M380.5-268.7c0 0 16.1-5.6 45.2-4.3 29.1 1.2 52-3.7 62.5-2.5 10.5 1.2 18.6 2.5 61.9-6.2 43.3-8.7 208.6-43.3 208.6-43.3l44-46.4c0 0-14.2-9.3-49.5-9.9 -35.3-0.6-139.9 3.1-161.6 3.7 -21.7 0.6-65.6 9.3-65.6 9.3l-68.1 40.9 -85.4 60.7 11.1-1.9L380.5-268.7 380.5-268.7z"/><g id="g3487" transform="translate(0,-1500)"><path id="path3461" fill="#BAC5D5" d="M657 1223.5c0 0 8-38.4 11.5-44.3s6.5-10.5 15.5-13.3 16.4-4.3 25.4-1.5c9 2.8 13.9 6.2 16.4 12.4 2.5 6.2 4.3 5.3 4.6 10.8 0.3 5.6 5.9 41.8 6.5 47 0.6 5.3-81.1-9.6-81.1-9.6L657 1223.5 657 1223.5z"/><radialGradient id="path3479_1_" cx="549.176" cy="220.976" r="38.753" gradientTransform="matrix(1.0453 -0.5113 -0.6056 -1.4598 244.9086 1816.6578)" gradientUnits="userSpaceOnUse"><stop offset="0" stop-color="#9893AA"/><stop offset="0.496" stop-color="#9E99B0"/><stop offset="0.719" stop-color="#BAB9CE"/><stop offset="0.865" stop-color="#CACCDD"/><stop offset="1" stop-color="#CACDDC"/></radialGradient><path id="path3479" fill="url(#path3479_1_)" d="M725.3 1238.6c0 0-0.8-47.3-2.4-53 -1.6-5.7-5.6-16.6-12.5-20.1 -6.9-3.5-18.5-3.9-22.2-3.1s-14.1 2.6-17.3 6.1c-3.2 3.5-13.3 39.8-14.1 45.1 -0.8 5.3-4.8 15.8-1.6 19.3C658.4 1236.5 725.3 1240.4 725.3 1238.6L725.3 1238.6z"/></g><path id="path3435" fill="#2D2E40" d="M372.5-263.1c0 0 0-7.4 29.7-11.1 29.7-3.7 68.1-1.9 85.4-1.9s104.6 3.1 112.1 3.1c7.4 0 19.2-0.6 37.1-5.6 18-5 21.7-10.5 40.2-10.5 18.6 0 35.3 2.5 44 8.7 8.7 6.2 9.3 9.3 5 18.6 -4.3 9.3-7.4 13.6-7.4 13.6L592.2-252l-177.1-6.8L372.5-263.1 372.5-263.1z"/><radialGradient id="path3791_1_" cx="29.224" cy="-2171.696" r="278.874" gradientTransform="matrix(1.6684 -0.626 -0.1737 -0.463 -215.5391 -1093.4658)" gradientUnits="userSpaceOnUse"><stop offset="0" stop-color="#090B1A"/><stop offset="0.487" stop-color="#2B2759"/><stop offset="0.597" stop-color="#444075"/><stop offset="0.691" stop-color="#4A477D"/><stop offset="0.845" stop-color="#686CAC"/><stop offset="1" stop-color="#7D84BB"/></radialGradient><path id="path3791" fill="url(#path3791_1_)" d="M-14.4-85.5c0 0 0.1-1.8-6.7-7.2 -6.8-5.4-13.2-5.9-14.5-10.4 -1.4-4.5-4.1-10.4-4.1-13.1 0-2.7 13.1-24.3 15.8-27.9 2.7-3.6 6.8-8.1 6.8-8.1l33.8-9.5 14.9-21.2 27 13.1c0 0 64.4-51.8 92.3-58.1S269.3-249 269.3-249l-21.6 8.1 68-7 61-5.9 24.8-0.2 4.5 5.4h45.3l15.3 0.5 51.5-6.5L329.5-210l-154.2 60.5 -85.7 36.1L60.1-80.1 -14.4-85.5 -14.4-85.5z"/><path id="path11194" fill="#090912" d="M-40.3-115.5c0 0-1.3 16.2-0.6 29.3 0.6 13.1 3.2 30.3 3.2 30.3s27.7 9.2 29.6 9.2c1.9 0 27.1-6.7 27.1-6.7l-34.1-32.8L-25-97l-8-5.4 -4.8-8.6 -1.3-8L-40.3-115.5 -40.3-115.5z"/><path id="path11261" fill="#060A36" d="M285.5-27.3c0 0 46.6 0.3 61.9 1.2 15.3 0.9 64.7-15.4 80-19.9S476-69.2 476-69.2s16.6-54.7 23.8-66.4c7.2-11.7 28-41.7 64-48.2 22.5-4.1 39.8-4.1 52.2 0.5 10.8 3.9 47.7 32 50.4 45.5 2.7 13.5 0 13.5 0 13.5l58.6-8.1 -12.6-38.7 -23.4 3.6 49.5-17.1 -10.8-10.8c0 0-58.6-2.7-69.4 0.9s-23.4 10.8-23.4 10.8 -7.2-18-46.8-17.1c-39.6 0.9-58.6 6.3-73 22.5s-23.4 30.6-23.4 30.6 -60.4 17.1-69.4 23.4c-9 6.3-31.5 23.4-31.5 23.4l-48.6 7.2 -20.7 18.9 -42.3-6.3 -9.1 7 42.5 5.6L285.5-27.3 285.5-27.3z"/><linearGradient id="path2973_1_" gradientUnits="userSpaceOnUse" x1="-112.782" y1="-1554.893" x2="369.614" y2="-1554.893" gradientTransform="matrix(1 0 0 -1 165.7033 -1712.9456)"><stop offset="0" stop-color="#080B1C"/><stop offset="0.35" stop-color="#050B2D"/><stop offset="0.553" stop-color="#061550"/><stop offset="1" stop-color="#090F29"/></linearGradient><path id="path2973" fill="url(#path2973_1_)" d="M54.7-79.7l35-33.7c0 0 61.7-36.3 139.2-65.7s121.7-44.7 177.7-56.5c56-11.8 113.4-16.2 113.4-16.2l15.3 3.9c0 0-80.5 9.2-144.9 28s-161.5 51.2-183.9 62.6c-22.3 11.4-43.8 22.3-43.8 22.3s21 2.2 42-2.6c21-4.8 66.1-13.1 64.8-12.7 -1.3 0.4-16.6 4.8-29.8 13.1 -13.1 8.3 18.4 0 18.4 0s-14.9 9.2-19.7 14c-4.8 4.8-4.4 10.5 1.3 11.4 5.7 0.9 107.2-6.6 107.2-6.6l-54.9 41.5 28.7 4.5 -8.8 7.9L52.9-74.4 54.7-79.7 54.7-79.7z"/><path id="path11022" fill="#B0B3D4" d="M284.8-78.3c0 0 1.3-6.1 7.4-6.7 6.1-0.7 11.4-1.3 19.5-6.7 8.1-5.4 31-25.6 31-25.6s45.1-6.1 59.2-12.8c14.1-6.7 13.9-7.1 18.6-10.5 9.6-7.1 15.7-12.3 25.8-27.2 10.1-14.8 11.4-26.3 11.4-26.3s31-16.8 61.3-24.9c30.3-8.1 40.4-18.2 90.2-20.2 49.8-2 169 0 169 0l-76.7-8.8 49.1-2.7 66-8.8 100.3-24.2c0 0 15.5-6.7 23.6-7.4 8.1-0.7-5.4 12.8-5.4 12.8s15.5-2 22.9-6.1c7.4-4 22.9-8.1 35-12.1 12.1-4 38.4-13.5 53.2-14.1 14.8-0.7 26.3-4 33-1.3 6.7 2.7 10.7 10.2 12 20.3 1.3 10.1 5.4 3.5-0.7 11.6 -5.3 7 16.7 19.2 16.7 19.2l-37.5 8.9 -24.2-6.1 -21.7 10.4 -14.6-3 -17.7 8.5 6.6 8.7 -247.4 50.8 -9.8-2.4 -7.7-5 -69-1.3 -21.2 9.4c0 0-25.1-24.4-72.7-10.1 -47.3 14.2-59 28.2-71.5 47.7 -17.5 3.9-47.3 15.3-47.3 15.3S428.9-118 420.1-114c-8.8 4-18.8 18.2-18.8 18.2l-41.7 7.4 -30.3 19.5L284.8-78.3 284.8-78.3 284.8-78.3z"/><path id="path11025" fill="#4B3E69" d="M-23.5-59.5l73.7 22.8 9.3-44.6C59.7-81.7 17.8-96.8 5-94.7c-10.4 1.7-20 4.9-20 6.7L-23.5-59.5 -23.5-59.5z"/><path id="path11205" fill="#1E1448" d="M215.1 11.4L287-27.2 209.3-35C209.3-35 215.1 11.4 215.1 11.4z"/><linearGradient id="path11281_1_" gradientUnits="userSpaceOnUse" x1="-86.946" y1="-1941.321" x2="274.946" y2="-1941.321" gradientTransform="matrix(1 0 0 -1 187.6816 -1879.0143)"><stop offset="0" stop-color="#0E0910"/><stop offset="0.558" stop-color="#100813"/><stop offset="1" stop-color="#291C2D"/></linearGradient><path id="path11281" fill="url(#path11281_1_)" d="M462.4 48.6l-96.7-6 -186.3 7.9L62.8 34.3c0 0 115.2 36.3 189.1 46.2 73.9 9.9 139 11.4 161.5 8.7 22.5-2.7 47-4.2 47-4.2s1.6-1.7 2.1-10.7C462.9 65.3 462.4 47.7 462.4 48.6L462.4 48.6 462.4 48.6z"/><path id="path11231" fill="#080C16" d="M62.8 34.3c-0.3-0.2-70.3-29.7-91-37.4 3.2-9.3-9.5-39.1-9.9-55.7C-38.4-75.5-40.2-76-40.2-76l26.8 21.4 28.8 15.3L32.9-5.7l30.5 18.9L62.8 34.3 62.8 34.3z"/><linearGradient id="path11029_1_" gradientUnits="userSpaceOnUse" x1="-136.296" y1="-324.363" x2="140.805" y2="-324.363" gradientTransform="matrix(1 0 0 -1 186.142 -379.5275)"><stop offset="0" stop-color="#42346B"/><stop offset="1" stop-color="#624D9E"/></linearGradient><path id="path11029" fill="url(#path11029_1_)" d="M59.5-81.3l-9.6 44.5c70 4.3 141.2 6 212.4 7.8l56.2-3.8 8.5-36.6c0 0-47.7-4.7-67.6-5.2 -19.9-0.6-34.6 0.4-51.9 0C158.1-75.7 107.6-82.5 59.5-81.3z"/><g id="g11155" transform="translate(-1.1048543,-1467.9592)"><linearGradient id="path11041_1_" gradientUnits="userSpaceOnUse" x1="200.328" y1="-291.075" x2="288.107" y2="-286.775" gradientTransform="matrix(1 0 0 -1 185.0371 1088.4318)"><stop offset="0" stop-color="#D48F0E"/><stop offset="0.723" stop-color="#E1B400"/><stop offset="1" stop-color="#F4D04D"/></linearGradient><linearGradient id="path11041_2_" gradientUnits="userSpaceOnUse" x1="247.261" y1="-295.348" x2="257.526" y2="-310.781" gradientTransform="matrix(1 0 0 -1 185.0371 1088.4318)"><stop offset="0" stop-color="#D48F0E"/><stop offset="0" stop-color="#E1B400"/><stop offset="1" stop-color="#F4D04D"/></linearGradient><path id="path11041" fill="url(#path11041_1_)" stroke="url(#path11041_2_)" stroke-width="2" d="M384.2 1382.1c0 0 27.1-7.1 42.7-11.8 15.7-4.7 25.4-6.7 33-7.7 7.6-1 13.3-0.3 13.3-0.3s-0.8 14.1-7.7 17.7 -35 7.6-45.1 8.9c-10.1 1.3-32.3 4.5-34.5 4s-7.2-2.9-5.7-6.1S384.4 1382.1 384.2 1382.1L384.2 1382.1z"/><g id="path11055" opacity="0.77" filter="url(#filter11149)" enable-background="new    "><polygon fill="#FBFBFB" points="458.4 1388.9 446.6 1378.7 439.8 1392.8 442.7 1377.4 427.1 1378.6 441.8 1373.4 433 1360.5 444.9 1370.7 451.7 1356.6 448.8 1372 464.4 1370.8 449.6 1376 458.4 1388.9 "/></g></g><path id="path11165" d="M267.4-26.6c0 0-5.3 26.9-4.6 30.3s1 8.4 4.3 8.7c3.3 0.3 26.7 1.4 35.5 1.5s41.1-1.2 50.7-1.9 15.6-1 18.5-3.1c2.9-2.1 6.2-4.6 3.8-9.4s-10.3-17.7-10.3-17.7 -3.1-5.1-8.7-6.7c-5.7-1.5-26.2-3.6-30.9-3.4 -4.6 0.2-59.1 1.5-59.1 1.5H267.4z"/><path id="path11167" fill="#73667E" d="M314.7-23.7c0 0-4.5 1.7-4.5 7.5S309.6-4.9 311-2.5c1.4 2.4 6.9 5.1 11.3 5.8 4.5 0.7 43.9 2.1 43.9 2.1l1-16.1c0 0-6.5-8.9-10.6-11.3s-4.1-2.7-12.3-2.7S315.1-23 314.7-23.7z"/><path id="path11163" opacity="0.452" fill="#FFFFFF" enable-background="new    " d="M271.4-22.5c0 0-7.7 22.5-6.9 27.6s-1.4 8.2 5.8 8.6c7.2 0.3 84.5-1 89.5-1.9 5-0.9 10.8-0.9 12-3.9 1.2-3.1 2.1-5.3-0.2-10.8 -2.2-5.5-13.4-17.8-16.1-19.4 -2.7-1.5-19.5-3.4-29-2.7C317.1-24.4 271.5-22.9 271.4-22.5z"/><path id="path11169" fill="#F2F2F2" d="M315.6-23.2c-0.7 0.2-4.8 5.2-4.8 5.2l-0.7 7.2 25-1.4 -0.4 3.3 -3.6 5.5L325.7 0l-0.5-1.9L317.5 0l-0.3 1.9c0 0 11.6 2.6 12.7 2.6s28.5 0.2 28.5 0.2l1.5-5.8 2.7 6.3 0.7-7 2.2 5.7 1.7-14.6 -1.9 2.6 -4.6 0.2 4.6-5 -5.8-5.3 -0.2 7.7 -2.9 3.4L354.2 2l-18 0.5 7.2-6.5 0.9 4.1 8.6-8.4 2.6-2.6 0.5-3.4 -4.3-0.3 -1.2 4.1 -3.1 0.9 -2.1 3.8L343.6-4l2.2-8.6 4.5-1 -0.7-2.7 -31.7 0.5 -4.3-1L315.6-23.2zM337-12.8h4.3l0.9 4.8 -9.1 9.6 -3.8 0.5 6.2-6L337-12.8z"/><linearGradient id="path11213_1_" gradientUnits="userSpaceOnUse" x1="-236.418" y1="-1942.986" x2="-69.091" y2="-1914.968" gradientTransform="matrix(1 0 0 -1 203.9233 -1924.1621)"><stop offset="0" stop-color="#C5CBE8"/><stop offset="0.031" stop-color="#5A5EA7"/><stop offset="0.152" stop-color="#484D8D"/><stop offset="0.294" stop-color="#2F2D6E"/><stop offset="0.577" stop-color="#050C29"/><stop offset="1" stop-color="#080B1A"/></linearGradient><path id="path11213" fill="url(#path11213_1_)" d="M-19.1-21.9c0 0-18.2-2.5-19.1 0.3s-1.9 1.6 0.6 5.4C-35-12.4-36-7-9.9 1.3s61.3 18.5 61.3 18.5L164 28.1l7-7.3L55.1 11.2 -19.1-21.9 -19.1-21.9z"/><linearGradient id="path11233_1_" gradientUnits="userSpaceOnUse" x1="-232.968" y1="-1979.504" x2="193.859" y2="-1986.123" gradientTransform="matrix(1 0 0 -1 192.6525 -1956.4708)"><stop offset="0" stop-color="#100C22"/><stop offset="1" stop-color="#170E3B"/></linearGradient><path id="path11233" fill="url(#path11233_1_)" d="M-29.4-2.5c249.2 84.9 60.8 21 93.6 32.1l218 5.6c0 0 93.2-3.4 105.8 3.8 12.6 7.2 9.5 14.3 9.5 14.3s-91-1.8-120.7 0 -154-5.4-168.5-7.2c-14.4-1.8-67.6-8.1-67.6-8.1S-29.4-1.3-29.4-2.5L-29.4-2.5z"/><linearGradient id="path3279_1_" gradientUnits="userSpaceOnUse" x1="114.2" y1="-1867.428" x2="82.627" y2="-1875.476" gradientTransform="matrix(1 0 0 -1 186.142 -1879.5275)"><stop offset="0" stop-color="#FFFFFF"/><stop offset="1" style="stop-color:#FFFFFF;stop-opacity:0"/></linearGradient><path id="path3279" opacity="0.452" fill="url(#path3279_1_)" enable-background="new    " d="M299.4-22.3H274l-5.6 34L300 4.9 299.4-22.3 299.4-22.3z"/><g id="g4010" transform="translate(-234.42275,-1447.019)"><radialGradient id="path4012_1_" cx="633.762" cy="-216.538" r="94.276" gradientTransform="matrix(1.0473 0 0 -1.3716 120.112 1117.2378)" gradientUnits="userSpaceOnUse"><stop offset="0" stop-color="#110A12"/><stop offset="0.67" stop-color="#291D2B"/><stop offset="0.778" stop-color="#1B0F1B"/><stop offset="0.887" stop-color="#1A0E1A"/><stop offset="1" stop-color="#0C050D"/></radialGradient><path id="path4012" fill="url(#path4012_1_)" d="M882.6 1414.2c0 71.4-44.2 129.3-98.7 129.3 -54.5 0-98.7-57.9-98.7-129.3s44.2-129.3 98.7-129.3S882.6 1342.9 882.6 1414.2z"/><radialGradient id="path4014_1_" cx="634.969" cy="-231.706" r="94.934" gradientTransform="matrix(1.0473 0 0 -1.332 146.2396 1105.6028)" gradientUnits="userSpaceOnUse"><stop offset="0" stop-color="#110A12"/><stop offset="0.703" stop-color="#463545"/><stop offset="0.778" stop-color="#57485B"/><stop offset="0.929" stop-color="#2B1D2E"/><stop offset="1" stop-color="#2E1F32"/></radialGradient><radialGradient id="path4014_2_" cx="634.973" cy="-231.706" r="95.026" gradientTransform="matrix(1.0473 0 0 -1.332 146.2396 1105.6028)" gradientUnits="userSpaceOnUse"><stop offset="0" stop-color="#000000"/><stop offset="1" stop-color="#2E1F32"/></radialGradient><path id="path4014" fill="url(#path4014_1_)" stroke="url(#path4014_2_)" stroke-width="1.5" d="M905.5 1414.2c0 69.4-44.2 125.8-98.7 125.8s-98.7-56.4-98.7-125.8c0-69.4 44.2-125.8 98.7-125.8C861.3 1288.4 905.5 1344.8 905.5 1414.2z"/><path id="path4016" fill="#FCFBFD" d="M882.3 1423.9c-5.5 57.2-44.4 100.3-86.9 96.1 -42.5-4.2-72.6-54-67.2-111.2 5.5-57.2 44.4-100.3 86.9-96.1C857.7 1316.8 887.8 1366.6 882.3 1423.9z"/></g><path id="path11211" fill="#453C73" d="M324.1-38.8L427.7-46l48.6-23.4c0 0-11.7 41.4-11.7 61.3 0 19.8-2.7 58.6-2.7 58.6l-37.8 1.8 -20.7 5.4 -15.3-11.7c0 0-28.8-4.5-39.6-5.4 -10.8-0.9-45.9 0.9-53.2-0.9 -7.2-1.8-43.2-1.8-43.2-1.8l-148.6-4.5 -46.8-2.7L-29-1.8l-7.7-12.7 86.9 34.4L198 27.5l71.2 3.1 107.1-18.9c0 0 0.7-11.1-4.7-19.2s-9.6-17.7-21.3-18.4c-51.7-3.1-30.6-2-30.6-2L324.1-38.8 324.1-38.8z"/><path id="path11174" d="M-9.4-55.2l20.8 20.5 -0.6 4.5 -35.7 11.5L14.6 4.2l45.9 13.4 97.4 7.8 67 3.6 16.6 1.3 -1.3-8.3c0 0-7-4.1-10.2-5.4 -3.2-1.3-11.1 1.8-7.9-2.7 3.2-4.5 7.2-35.2 7.2-35.2l-11.8-8.8L50.6-39 -9.4-55.2 -9.4-55.2z"/><linearGradient id="path11176_1_" gradientUnits="userSpaceOnUse" x1="-225.443" y1="-1789.329" x2="-182.227" y2="-1783.95" gradientTransform="matrix(1 0 0 -1 192.2475 -1827.2344)"><stop offset="0" stop-color="#312344"/><stop offset="0.136" stop-color="#251D50"/><stop offset="0.562" stop-color="#413D7B"/><stop offset="1" stop-color="#736E98"/></linearGradient><path id="path11176" fill="url(#path11176_1_)" d="M-38.5-59.1l9 39.6 6.8 2.1 13.3-6.5 19.9-6.4c0.5-1.4 0.6-2.8 0.6-4.5L-4.6-50.2l-21.7-3.1L-38.5-59.1 -38.5-59.1z"/><path id="path11201" fill="#170E48" d="M340.8-28L293-30.9h-30.9L255-16.1l-13 13 -8.9 4.5 -4.5 15 51.7 3.4 15.6-1.4L266 15l-3.6-4.4 2.7 0.7 -1.3-6.8 -4.5 1.9 3.8-29 7 1 1.3-3.5 27.6-4.1L340.8-28 340.8-28z"/><path id="path11198" fill="#362C69" d="M261.8-23.9L257.4 8l2.2 5.1 1.6-4.5 2.2-2.9 3.5-26.4L261.8-23.9 261.8-23.9zM251.6-29c0 0-7.3 1.9-13.7 5.1 -6.4 3.2-10.5 4.5-10.5 4.5 -2.1 11.3-4.5 25.9-7.8 34.7 0.7 4.7 13.1 1.1 20.3 7l28 1.3 56.4-2.9 20.7-2.5 -17.8-1.6 42.4-3.8c0 0 6.7-2.2 6.7-4.8s-1.6 2.2-6.1 3.5 -48.4 4.1-48.4 4.1 -39.1-1.3-42.9-0.6c-3.8 0.6-16.3-4.8-16.3-4.8l-1.3 3.5c0 0 5.1 3.5 15.6 3.5s10.5 1.9 10.5 1.9l-57.9-3.8 6.7-14 12.4-6.1 3.2-4.8 9.9-19.1L251.6-29 251.6-29z"/><path id="path11203" fill="#CBC3F4" d="M263.4 8l-1.9 2.9 6.1 4.1c0 0 62.2 1 62.8 0l43.4-3.5 2.5-7.8c0 0-1.8 5.8-10.5 7 -8.7 1.3-89.3 2.3-89.3 2.3s0 0 0 0C273.6 12.8 265.3 12.9 263.4 8L263.4 8 263.4 8z"/><path id="path11209" fill="#030E2C" d="M321.4 19.5l9.9-1.9 -9.6-1.3 16.2-2.2 33.8-1.9 4.1-7 2.5 2.9 -2.9 5.1c0 0 32.5-3.2 41.4-3.2s28-1.3 28-1.3 0 3.8-2.5 4.5c-2.5 0.6-42.4 7.3-42.4 7.3l-78.7 12.7 -3.8-1.9c0 0-70.1-0.6-75.8-0.6s-26.1-4.1-26.1-4.1l8-6.4 41.4 2.5L321.4 19.5 321.4 19.5z"/><path id="path11207" fill="#9498D9" d="M264.7 21.4c0 0 21.1 1.4 67.5-2.9 49-4.5 88.2-5.1 88.2-5.1l-39.2 10.2L318.8 30l-59.2 1 40.4-4.8 39.5-3.2c0 0-63.7 1.3-66.2 1C270.7 23.6 264.7 21.4 264.7 21.4L264.7 21.4z"/><path id="path11309" fill="#100813" d="M457.1 48.8l-46.5 18.5L345 68.5l46.5-7L457.1 48.8z"/><radialGradient id="path3759_1_" cx="-38.2" cy="-2212.052" r="124.409" gradientTransform="matrix(1.4138 -0.2878 -9.791258e-002 -0.4809 -3.2294 -1274.0815)" gradientUnits="userSpaceOnUse"><stop offset="0" stop-color="#090A1C"/><stop offset="0.427" stop-color="#090B1A"/><stop offset="0.57" stop-color="#0F1233"/><stop offset="0.693" stop-color="#545385"/><stop offset="0.766" stop-color="#A2ADD6"/><stop offset="1" style="stop-color:#090A1C;stop-opacity:0"/></radialGradient><path id="path3759" fill="url(#path3759_1_)" d="M215.3-237.6c-21 7.6-114 40.8-129.9 52.9s-50.3 38.2-50.3 38.2l3.2-22.9 22.3-45.2c0 0 18.5-10.4 54.8-23.6 32.8-11.9 128.5-14.9 168.5-13C240.3-242.6 229-241.4 215.3-237.6L215.3-237.6 215.3-237.6z"/><radialGradient id="path2540_1_" cx="456.325" cy="-1706.333" r="123.882" gradientTransform="matrix(2.8231 -1.7525 -0.2571 -0.4141 -1252.0048 -176.7935)" gradientUnits="userSpaceOnUse"><stop offset="0" stop-color="#10101C"/><stop offset="0.453" stop-color="#42447B"/><stop offset="0.546" stop-color="#4F4F7A"/><stop offset="0.731" stop-color="#6A6F9B"/><stop offset="0.957" stop-color="#CED2E3"/><stop offset="1" stop-color="#ECEFFB"/></radialGradient><path id="path2540" opacity="0.497" fill="url(#path2540_1_)" enable-background="new    " d="M464.8-259.2l38.5-36.3c0 0 19.7-17.5 24.5-21.4s26.3-22.3 29.8-27.6 10.5-10.1 18.8-13.6 24.5-17.1 24.5-17.1 -26.3 0.4-39 2.2c-12.7 1.8-39.4 5.7-43.8 7.9 -4.4 2.2-45.1 26.3-45.1 26.3s-48.6 26.3-57.3 34.6c-8.8 8.3-62.6 47.7-62.6 47.7s23.2-1.8 47.7-1.3C425.4-257.4 464.8-258.3 464.8-259.2L464.8-259.2z"/><path id="path3330" fill="#4D436B" d="M253.4-134c0 0-12.3 7.9-14 12.3 -1.8 4.4-0.4 9.6 5.7 9.2s55.6-3.1 73.1-4.4c17.5-1.3 76.6-10.5 87.1-15.8 10.5-5.3 37.6-31.1 42.5-39.4s7.9-14 8.3-17.1c0.4-3.1-4.8-8.5-12.3-8.8 -15.3-0.4-48.2 4.8-68.3 11.8 -12.7 4.4-67 22.3-85.4 32C271.8-144.5 253-133.5 253.4-134z"/><path id="path3338" fill="#0D1023" d="M261.7-132.2c0 0 5.3-4.8 25.8-13.1 20.6-8.3 54.3-24.1 70-28.5 15.8-4.4 34.7-11.2 52.2-15.5 17.5-4.4 36.7-4.4 39.5-3.9 4.6 0.8 5.6 4.2 3 9 -2.6 4.8-8.9 17.1-22 29.3 -8.2 7.6-25.2 19.8-36.1 22.7 -19.7 5.3-56.7 12.7-83.9 14.5 -10.9 0.7-55.2 1.8-59.5 1.8 -4.4 0-6.3-5.8-2.2-8.8C253.4-128.3 261.7-132.7 261.7-132.2L261.7-132.2z"/><path id="path3332" fill="#7B7AB7" d="M307.2-151.5l-10.1 6.6 21.9-0.4 0.9 9.6c0 0-21.9 3.5-26.3 4.4 -4.4 0.9-30.2 8.8-32 8.8s-6.1 1.3-4.4-0.9 14.9-10.9 14.9-10.9 13.6-8.3 19.3-10.5C297.2-147.1 305.9-151 307.2-151.5L307.2-151.5z"/><path id="path3340" fill="#6D6FAA" d="M345.5-164c0 0 5.9-4.6 10.3-6.1 4.4-1.5 7.2-3.7 7-0.4 -0.2 3.3-9.6 17.9-9.6 17.9L345.5-164 345.5-164z"/><path id="path3342" fill="#6D6FAA" d="M377.9-165.9c0 0 8.8-5.9 13.6-7.9 4.8-2 9.8-6.3 10.9-3.5 1.1 2.8 1.1 10.9-2 13.6 -3.1 2.6-12.3 11.8-14 13.1 -1.8 1.3-2.2 0-2.8-2.2 -0.7-2.2-4.6-9.4-5.5-10.5 -0.9-1.1 1.1-2.8 1.1-2.8L377.9-165.9 377.9-165.9z"/><path id="path3346" fill="#2D1924" d="M344.9-148.5c0 6.6-3.3 11.9-7.4 11.9s-7.4-5.3-7.4-11.9c0-6.6 3.3-11.9 7.4-11.9S344.9-155.1 344.9-148.5z"/><path id="path3344" fill="#2D1924" d="M376.8-150.1c0 6.6-3.3 11.9-7.4 11.9 -4.1 0-7.4-5.3-7.4-11.9 0-6.6 3.3-11.9 7.4-11.9S376.8-156.6 376.8-150.1z"/><path id="path3350" fill="#4F3F5B" d="M344.2-148c0 3.3-1.8 5.9-4 5.9s-4-2.6-4-5.9 1.8-5.9 4-5.9C342.4-153.9 344.2-151.2 344.2-148z"/><path id="path3348" fill="#4F3F5B" d="M376-150c0 3.3-1.8 5.9-4 5.9s-4-2.6-4-5.9 1.8-5.9 4-5.9C374.2-155.9 376-153.2 376-150z"/><path id="path3352" fill="#8982B1" d="M351.1-146.6c0 0-3.3 3.1-2.4 5 0.9 2 2.4 1.8 5 2 2.6 0.2 4.4 0.9 4.4 0.9v2.4c0 0-15.5 3.1-15.8 2.2 -0.2-0.9 2.2-6.6 4.2-9.2s16-17.9 16-17.9 -0.4 3.7-0.4 8.5c0 4.8 2 10.7 2.8 11.8s-1.3 1.5-2.4-0.4c-1.1-2-1.8-15.3-1.8-15.3L351.1-146.6 351.1-146.6z"/><path id="path3354" fill="#FEFAF9" d="M340.1-161.9h5.2c0 0 3.9 3.8 4.1 5.8 0.2 2 1.9 3.1-0.5 6 -2.4 2.9-4.3 5.6-4.3 5.6s0.8-4.8 0.2-7.6c-0.7-2.8-3.9-7.7-4.2-8.3C340.4-160.9 340.3-161.8 340.1-161.9z"/><path id="path3356" fill="#FEFAF9" d="M372.1-162.9l4.8 0.2c0 0 3.9 3.8 4.3 6 0.4 2.2 0.3 3.8-0.3 4.2 -0.7 0.4-3.9 0.8-3.9 0.8s-0.2-3.7-1.5-5.6c-1.3-1.9-3.2-3.9-3.2-3.9L372.1-162.9 372.1-162.9z"/><path id="path3362" fill="#F1F86E" fill-opacity="0.399" d="M423.2-182.4c0 0-10.8 5.1-12.5 9.1 -1.7 4-8.8 8.4-7.6 11.8s0.2 5.9 4.3 5.9c4.2 0 13.8-2.5 14.4-0.3 0.6 2.2 0.6 7.9 2.6 6.8 2-1.1 10.2-7.6 10.5-8.4 0.3-0.8 1.2-3.1 1.2-3.1s5.9-3.7 7.1-7.3c1.2-3.6 3.1-6.5 1.4-9 -1.7-2.5-4.8-6.3-10.5-7.1 -5.7-0.8-12.2 2.3-12.2 2.3L423.2-182.4 423.2-182.4z"/><path id="path3358" fill="#FEFAF9" fill-opacity="0.611" d="M451.4-192.9l-52.6 28c0 0-22.6 17.8-33 25.4s-16.1 11.9-17.6 13 -14.4 5.6-14.4 5.6 34.5-6.5 42.3-7.7c18.1-3 31.1-10.2 35.6-13.2s18.4-11.1 21.4-14.5c2.9-3.4 13.3-16.1 15.3-20.9 2-4.8 5.4-9.4 4.8-12.4C452.5-192.6 451.5-192.6 451.4-192.9L451.4-192.9z"/><path id="path3364" fill="none" stroke="#000000" stroke-width="2" stroke-linejoin="round" d="M-16.9-154.8c0 0-2.8 2 0 6.6 2.8 4.6 8.3 11.4 12.7 12 4.4 0.7 10.5 1.5 14.4-1.5 3.9-3.1 34.6-32.8 39.6-38.7 5-5.9 12.9-19 13.1-26.3 0.2-7.2 0.4-9-2.2-9.8 -2.6-0.9-2.8-0.2-2.8-0.2"/><g id="g3417" transform="translate(0,-1500)"><path id="path3374" fill="#2D1924" d="M31.7 1315.4c-4.1 0-7.4 5.3-7.4 11.9 0 5.1 2 9.5 4.9 11.2 0 0 0.1-0.1 0.1-0.1 0.8-0.8 1.5-1.7 2.3-2.3 0.5-0.4 1.3-1.1 2-1.5 1-0.7 1.9-1.3 2.9-2 0.7-0.4 1.5-1 2.3-1.5 0.2-1.2 0.4-2.4 0.4-3.7C39.1 1320.7 35.8 1315.4 31.7 1315.4L31.7 1315.4z"/><path id="path3378" fill="#4F3F5B" d="M34.4 1322c-2.2 0-4.1 2.6-4.1 5.9s1.8 5.9 4.1 5.9c0.1 0 0.1 0 0.2 0 0.6-0.4 1.2-0.8 1.8-1.3 0.3-0.2 0.6-0.4 0.9-0.6 0.7-1.1 1.1-2.5 1.1-4.1C38.5 1324.6 36.6 1322 34.4 1322z"/><path id="path3384" fill="#FEFAF9" d="M35.3 1316c0.2 0.1 0.3 1 0.5 1.6 0.3 0.6 3.5 5.5 4.1 8.3 0.3 1.2 0.3 2.8 0.2 4.1 0.3-0.2 0.5-0.4 0.7-0.6 1.2-1.2 2.3-2.3 3.4-3.4 0.3-0.3 0.7-0.6 1-1 0-1.2-0.6-2.1-0.8-3.3 -0.2-2-4.1-5.8-4.1-5.8H35.3z"/><path id="path3399" fill="#EAE57F" d="M22.2 1336.2c0 0-7.1 0.3-7.9 2.6s-5.9 4.8 0.2 4c6-0.8 8.8 0.9 8.8 0.9s0.9-2.9 0.9-5.1S22.4 1336.4 22.2 1336.2z"/><path id="path3401" fill="#F1EEA8" d="M48.4 1297.8c0 0 9.4 0.5 7 3.6 -2.5 3.1-6 7.7-10.8 9.1 -4.8 1.4-17 3.7-20.7 7.6s-15.8 13-20.3 16.6c-4.5 3.6-10.7 6-11.8 9.6 -1.1 3.6-1.1 6.7 0.9 9 2 2.3 5.9 7.4 1.7 5.1 -4.2-2.3-9.1-6.3-8.5-9.4 0.6-3.1 5-12.1 7.3-12.5 2.3-0.5 12.5-7 14.5-8.5 2-1.5 4.8-5.1 10.1-9.8 5.3-4.6 10.5-11.8 14.5-14.4 4-2.6 12.5-5.4 12.5-5.4L48.4 1297.8 48.4 1297.8z"/><radialGradient id="path3403_1_" cx="-86.592" cy="163.37" r="39.49" gradientTransform="matrix(1.8746 -1.5664 -0.7763 -0.929 334.7358 1367.2039)" gradientUnits="userSpaceOnUse"><stop offset="0" stop-color="#F1EEA8"/><stop offset="0.957" stop-color="#C3CDE6"/><stop offset="1" stop-color="#FCFAFF"/></radialGradient><path id="path3403" opacity="0.398" fill="url(#path3403_1_)" enable-background="new    " d="M54.9 1288.4c0 0 1.4-1.5 2.6-0.9 1.2 0.6 3.7 0.8 3.7 3.4 0 2.6 0.9 10.1-0.3 12.1s-7.9 9.9-9.4 13.5c-1.5 3.6-1.7 3.6-1.7 3.6s-5 6.2-7.3 9.3 -12.2 10.4-18.4 17.3 -9 11-14.2 13.9 -7.3 3.7-10.8 2c-3.6-1.7-11.5-2.3-13.2-7 -1.7-4.6-4.2-6.7-2.9-8.7 1.2-2 8-10.2 12.5-15 4.5-4.8 12.8-13 20-18.3s22.4-15.8 28.5-19C49.9 1291.3 54.6 1288.4 54.9 1288.4z"/></g><path id="path3433" fill-opacity="0.704" d="M481-259.6c0 0 155.8 0.9 183 0.9s57.5-1.5 57.5-1.5l61.6-94.8c0 0-32.4-6.1-77-6.1 -44.7 0-194.4 2.6-194.4 2.6l25-11.8c0 0 122.1-9.3 155.3-9.3 33.3 0 97.9 4.7 114.3 9.3 -6.5 14.6-7.4 13.6-17.1 31.2 -9.6 17.5-58.7 88.4-58.7 88.4s-14.9 2.6-77.9 1.8C589.6-250 480.2-257.9 481-259.6L481-259.6z"/><path id="path3495" fill="#FFFFFF" fill-opacity="0.13" d="M368.5-263.4c29-26.8 58.9-50.4 85.1-66.4 12.6-7.7 42-29.3 78.2-38.4 23.1-5.8 69.3-3.4 75.7-8.2 0 0 55.6-2.5 88.9-3.4 33.3-0.9 63 2.4 86.6 5.5 23.7 3.2-2.6 13.7-2.6 13.7l-50.6 59.3c0 0-51.9 49.7-63.3 53C655.3-244.9 382.1-258.5 368.5-263.4L368.5-263.4z"/><path id="path3429" fill="#DFE2ED" fill-opacity="0.704" d="M806.4-369.6l-13.6-4.3c0 0-11.1 6.2-13 11.8 -1.9 5.6-6.2 9.3-9.9 14.9 -3.7 5.6-34.7 32.8-39 39 -4.3 6.2-21 26-26 30.3 -5 4.3-40.9 29.7-40.9 29.7l39.6 0.6 27.9-3.7L806.4-369.6 806.4-369.6z"/><path id="path3497" fill="#050A30" d="M697.5-41.5c0 0 179.5-53.9 200-60 20.4-6.2 61.9-18 1.9-9.9s-156 21.7-156 21.7l3.7 28.5L697.5-41.5 697.5-41.5z"/><path id="path3499" fill="#050A30" d="M773.6-189.5c0 0 64.4-13.6 95.3-21 31-7.4 123.2-24.8 123.2-24.8l-5.6-8 26-10.5 4.3 4.3 30.3-9.9c0 0 8 0.6 14.2 2.5 6.2 1.9 9.9 5 9.9 5s4.3-6.8 11.8-9.3c7.4-2.5 16.1-2.5 16.1-2.5s-11.1-12.4-9.9-16.1 1.9-15.5-0.6-19.8c-2.5-4.3-2.5-8.7-7.4-9.9 -5-1.2-15.5-3.7-22.9-3.1s32.2-2.5 34.7-1.2c2.5 1.2 21.7-1.2 35.9 6.2 14.2 7.4 26.6 18.6 26.6 18.6s11.8 24.8 10.5 53.2c-1.2 28.5-0.6 28.5-0.6 28.5l-1.2 18.6c0 0-6.8-6.2-10.5-6.2 -3.7 0-14.9 0-14.9 0s-3.3-17.5-4.3-21c-2.5-8.7-8.7-22.9-8.7-22.9s-10.5-14.2-22.3-14.9c-11.8-0.6-22.9 0-33.4 11.1 -10.5 11.1-21 40.9-23.5 48.3 -2.5 7.4 5 5.6-16.7 9.9 -21.7 4.3-71.2 7.4-112.1 13s-125.7 19.8-139.9 16.7c-14.2-3.1-29.7-0.6-16.7-8 13-7.4 56.3-22.3 87.3-32.2 31-9.9 109.6-31 109.6-31L773.6-189.5 773.6-189.5z"/><path id="path3501" fill="#4A4172" d="M1086.2-249.5c12.4-1.5 12.4-3.7 22 1.5 9.6 5.3 19.5 17 22.3 27.9 2.8 10.8 5.9 24.4 5.6 44 -0.3 20.1 0.4 8.8 1 20.5 0.5 9.3 0.2 34.9 3.9 25.6 3.7-9.3 1-13 1.3-25.7 0.3-12.7 1.5-31.9 0-40.2s-2.6-21-11.8-34.4c-2.7-3.9-7.1-14.9-19.5-19.5 -12.4-4.6-17.3-7.1-26.6-0.6C1075.1-243.9 1087.2-249.2 1086.2-249.5L1086.2-249.5z"/><linearGradient id="path3503_1_" gradientUnits="userSpaceOnUse" x1="1074.915" y1="-1654.711" x2="1020.302" y2="-1654.711" gradientTransform="matrix(1 0 0 -1 50.4219 -1902.0316)"><stop offset="0" stop-color="#41345C"/><stop offset="1" stop-color="#131838"/></linearGradient><path id="path3503" fill="url(#path3503_1_)" d="M1065.4-252.2c13.6-8.3 14.9-10.5 27.6-10.5s25.4 6.1 28.9 10.9c3.5 4.8 8.3 13.6 7.4 17.5 -0.9 3.9-3.1 1.8-3.1 1.8s-5.7-11.4-15.8-15.8c-10.1-4.4-15.3-7.9-25.4-2.6 -10.1 5.3-15.3 9.6-15.3 9.6L1065.4-252.2z"/><g id="g3879" transform="translate(-42.584698,-1499.471)"><g id="g3875"><path id="path3079" fill="#960406" d="M1184.6 1227.8c0 0-9 4.3-10.5 9.3 -1.5 5 0.9 8.7 2.5 8 1.5-0.6 13.6-0.3 15.5-1.9 1.9-1.5 4.3-7.4 2.2-9.6C1192 1231.5 1189.3 1227.8 1184.6 1227.8z"/><path id="path3081" fill="#ECECEC" d="M1175.8 1234.2c0 0-2.2 2.8-2.2 4.6 0 1.9 0.7 0 2-1.2 1-1 2.3-2.6 2.3-2.6L1175.8 1234.2 1175.8 1234.2z"/></g><g id="path3083" filter="url(#filter3869)"><ellipse fill="#980207" cx="1187.6" cy="1236.3" rx="7.5" ry="9.4"/></g></g><path id="path3889" fill="#9B93A7" d="M822.4-363.1l-7.9-6L778-308.8l-5.9 51.1 13.3-1.4 10.1-58.6L822.4-363.1z"/><path id="path3885" fill="#AFADC3" d="M806.3-370.4l-77 119.1 23.7-3.9 36.9-63 28.1-48.3L806.3-370.4 806.3-370.4z"/><path id="path3887" fill="#958FA9" stroke="#000000" stroke-width="0.2" d="M788.4-314.5l-40.3 62.6 32-2.7L788.4-314.5 788.4-314.5z"/><path id="path3891" fill="#7D6E91" stroke="#000000" stroke-width="0.2" stroke-linejoin="round" d="M829.1-264.6l-43 2.2 -0.6 3.5 -55.4 6.4 -29.9 3.8 49.7-1.6 77.7-10.5L829.1-264.6z"/><path id="path3893" fill="none" stroke="#000000" stroke-width="0.8" stroke-linejoin="round" d="M750.7-253.8l1.9 3.2 3.8 8.3 2.5 3.8 14.7 52.2 -4.5 21 2.5 14 -4.5 68.2 10.2 19.7 -1.9 26.8 212.1-59.2 41.4-10.8"/><path id="path3895" fill="none" stroke="#000000" stroke-width="0.8" stroke-linejoin="round" d="M987-95.8c0 0 22.9-48.4 28.7-83.4"/><path id="path3897" fill="none" stroke="#B9B9B9" stroke-width="0.8" stroke-linejoin="round" d="M1013.8-174.2c0 0 7-23.6 3.8-48.4"/><path id="path3899" fill="none" stroke="#050505" stroke-width="0.8" stroke-linejoin="round" d="M1011.9-292.3l17.2-4.8c0 0 1.9-0.6 3.8 0 1.9 0.6 5.4 4.8 6.7 10.2 1.3 5.4 4.8 18.8 4.5 22 -0.3 3.2-7.6 6.7-10.5 7.3s-10.2 0.6-10.2 0.6 -11.5-30.9-12.4-32.8C1010-291.7 1013.2-293.6 1011.9-292.3L1011.9-292.3z"/><path id="path3901" fill="#8B8DC2" d="M1007.4-291.5c0 0 11.3 25.2 11.5 27.9s1.1 6.8-0.5 8.1c-1.6 1.4-7.4 0.7-7.4 0.7s-2.9-14-5.4-19.4 -6.3-14.4-6.3-14.4L1007.4-291.5 1007.4-291.5z"/><path id="path3903" fill="#21213B" d="M998.9-289.4l2.7 6.5c0 0 5.9-5.4 5.9-6.8 0-1.4-0.2-2.3-0.2-2.3L998.9-289.4 998.9-289.4z"/><path id="path3905" fill="none" stroke="#050505" stroke-width="0.8" d="M989.9-296.4c0-1.1 7.4 3.8 8.6 6.5"/><path id="path3907" fill="none" stroke="#050505" stroke-width="0.8" stroke-linejoin="round" d="M998.2-287.9c0 0-2.9 0-2 2.7 0.9 2.7 4.1 7.7 5.4 12.4 1.4 4.7 3.6 13.3 5 15.1 1.4 1.8 3.2 3.6 4.1 3.6"/><path id="path3909" fill="none" stroke="#F1F1F1" stroke-width="0.8" stroke-linejoin="round" d="M959.7-300.5c0 0-4.1 2 6.5 2.5 10.6 0.5 24.1 1.1 24.1 1.1"/><g id="g3927" transform="translate(0,-1500)"><linearGradient id="path3915_1_" gradientUnits="userSpaceOnUse" x1="654.192" y1="-173.155" x2="671.26" y2="-146.754" gradientTransform="matrix(1 0 0 -1 140.1373 1110.4933)"><stop offset="0" stop-color="#6E659E"/><stop offset="0.65" stop-color="#8180B9"/><stop offset="1" stop-color="#6C629D"/></linearGradient><path id="path3915" fill="url(#path3915_1_)" d="M810.1 1250.4c0 0-3.9 2.2-5.1 3.8 -1.1 1.6-5.9 2.8-5.9 2.8s-3.9 5.4-4.3 8.8c-0.3 3.4-3.6 14.8-1.7 16.7 2 1.9 3 3.6 3 3.6l23.4-22.5c0 0-6.3-3.6-8.2-6.2 -1.9-2.6-1.9-6.5-1.9-6.5L810.1 1250.4 810.1 1250.4z"/><path id="path3911" fill="#021046" d="M800.9 1267.7c0 0 3.4-0.9 7-2.3 3.6-1.4 9-3.4 9-3.4s5.4 3.8 9.5 3.4 6.3-1.4 6.3-1.4 2 3.8-0.2 7.2 -4.5 9.7-7 11.7c-2.5 2-5.9 2.9-10.6 3.6 -4.7 0.7-14 0.5-16 0.2 -2-0.2-4.5-0.7-3.6-3.2C796.2 1281.2 801.4 1267.9 800.9 1267.7L800.9 1267.7z"/><path id="path3913" fill="none" stroke="#000000" stroke-width="0.8" stroke-linejoin="round" d="M805 1254.3c0 0-2.3 1.7-1.2 5.6 1.6 5.6 5.4 5.1 5.2 5.4"/></g><path id="path3919" fill="#756F8B" d="M911.2-281.8c0 0 35.9-11.1 43.2-15.6 5.4-3.3 23.3-8.1 30.3-16.1 4.5-5.2-26.8-9.7-26.8-9.7l-20.7-0.9c0 0 23 2.3 27.9 3.8 5 1.6 9.9 2 8.8 5.4 -1.5 4.5-24.1 14.6-24.1 14.6l-43.2 15.1L911.2-281.8z"/><path id="path3934" fill="#0F0F31" d="M809.6-248.2c0 0 0.8 4.4 2.6 6.5 1.8 2 3.8 6.6 12.4 7 8.6 0.5 9.8-2.7 9.8-2.7 1.6-1.9 10.9-15.8 14.9-19.7 4.1-3.8 4.1-5.8 10.4-6 6.3-0.2 9.4 0.6 23.6 0 14.2-0.7 20.5-1.1 25.4-3.6 5-2.5 11-8.1 10.4-16.4 -0.7-8.3-3.6-13.1-9.9-15.8 -6.3-2.7-17.8-2.9-23.4-2.9 -5.6 0-22.5-1.1-30.9 2.5 -8.3 3.6-16.9 10.8-19.8 16.7 -2.9 5.9-11.9 18-15.8 22.5 -3.8 4.5-9.5 9.9-9.2 9.7L809.6-248.2 809.6-248.2z"/><path id="path3936" fill="#888BC2" d="M810.3-247.4l12.7-13.4 7 2.2c0 0-1.6-1.6-4.5 1.9 -2.9 3.5-10.2 12.4-10.5 14.3s-0.3 2.5-0.3 2.5L810.3-247.4 810.3-247.4z"/><linearGradient id="path3940_1_" gradientUnits="userSpaceOnUse" x1="717.293" y1="-1613.685" x2="722.486" y2="-1630.822" gradientTransform="matrix(1 0 0 -1 146.9506 -1908.7396)"><stop offset="0" stop-color="#B2B6DB"/><stop offset="1" stop-color="#8283BC"/></linearGradient><path id="path3940" fill="url(#path3940_1_)" d="M824.1-262.9c0 0 0 1.9 2.2 2.1 2.2 0.2 3.8 0.2 3.8 0.2s7.2-8.6 11-10.8c3.8-2.2 7-4.5 15.1-5.7s21.2-1.8 28.8-2.7c7.6-1 21.3-4.8 21.3-4.8l10.7 0.2c0 0-0.6-6.4-5.3-9.6 -4.6-3.2-7.2-4.9-9.7-4.5 -2.5 0.5-19.6-0.5-24.8 0.8 -5.3 1.3-22.3 3-26.1 6.8s-15.3 12.3-17.2 15.3S824-262.7 824.1-262.9L824.1-262.9z"/><linearGradient id="path3960_1_" gradientUnits="userSpaceOnUse" x1="674.772" y1="-1630.038" x2="683.668" y2="-1636.213" gradientTransform="matrix(1 0 0 -1 154.5711 -1880.4347)"><stop offset="0" stop-color="#212248"/><stop offset="0.214" stop-color="#433863"/><stop offset="1" stop-color="#8E82A6"/></linearGradient><path id="path3960" fill="url(#path3960_1_)" d="M834-256.7l-13.5 18.2c0 0 2.2 2.7 5.4 2.4 3.2-0.3 8-1.3 8-1.3l12.6-19.4L834-256.7 834-256.7z"/><path id="path3972" fill="#433863" d="M837.9-259.9c0 0 3.8-9.9 7.4-11.7 3.6-1.8 7.7-4.7 22.1-5 14.4-0.2 29.3-0.9 29.3-0.9l5.2 0.5 13.5-0.7c0 0-0.9 7.7-3.2 8.8 -2.3 1.1-13.1 1.4-24.1 1.4 -11 0-14.2 0.7-25.4 0.7 -11.3 0-12.4 4.1-13.5 6.3 -1.1 2.3-5.9 2-5.9 2L837.9-259.9 837.9-259.9z"/><linearGradient id="path3916_1_" gradientUnits="userSpaceOnUse" x1="757.957" y1="-1508.68" x2="752.531" y2="-1514.136" gradientTransform="matrix(1 0 0 -1 173.8039 -1829.4496)"><stop offset="0" stop-color="#E7E2FD"/><stop offset="0.282" stop-color="#B6BDE3"/><stop offset="1" stop-color="#9DADDA"/></linearGradient><path id="path3916" fill="url(#path3916_1_)" d="M918.6-326.4c0 0 8.3 14.7 14 16.2 5.7 1.6 9.9-0.3 8.9-3.5 -1-3.2-9.6-7.3-12.7-8.9C925.6-324.2 918.2-326.4 918.6-326.4L918.6-326.4z"/><path id="path3917" fill="none" stroke="#000000" stroke-width="1.5" d="M733.6-252.7l74.8-118.5c0 0-16.2-7.2-22.5-6.8 -6.3 0.5-73.4-5-82-5S561.5-377 561.5-377"/><path id="path4024" d="M506.8 30.4l1.6-1.4c1.3 0.9 16.3 20.8 21 24.2 9 6.5 10.6 8.3 24.2 11.3 13.9 3.1 19 0.5 19 0.5s2.5-1.3 1.8-6.1c-0.7-4.8-13.1-60.8-13.1-60.8s1.9 5.1 5.1 6.1c4.3 1.3 7.2-0.2 8.4-4 1.3-3.8 1.8-6.8 1.8-6.8l0.6-2.2c0 0 8.3 67.2 9.2 68.5 1 1.3 3.8-0.1 6.7-1.6 4.3-2.2 22-17.8 28.7-29 6.7-11.1 13.5-27.2 13.5-30.9 0-2.2-1.1-5.4-1.1-5.4l11.6-3.7c0.4-0.2-6.7 27.2-19.3 46 -10.7 15.9-32.1 35.8-54.3 37.1 -22 1.3-37.1-8.7-45-14.8C519.9 51.6 506.4 32 506.8 30.4L506.8 30.4z"/><path id="path4026" d="M583.3-37.7l19.1 6.2c0 0-5.9 0-7 1.6 -1.1 1.6-3.7 4.5-3.7 6.5s0.8 4.3-1.6 6.1 -9.9 2.1-9.9 2.1l64.3 3.7 2.2-10.7 0.8-3.7 -1.1-15.3 -6.4 0.5 -1 11.5c0 0 3.5 0.8 3.5 2.2 0 1.4-0.5 2.9-0.5 2.9l-58.9-15L583.3-37.7 583.3-37.7z"/><path id="path4028" d="M542.9-11.1l-1 6.1 -11.5 6.2L521.6 9l-3.3 5.6 -3.3 5.1 42.5-27.7 4.5 2.5 1.3-1.9 -6.5-3L551.7-6l-5.4-0.3L542.9-11.1z"/><path id="path4030" d="M534.3-41.2l-1.8 15.8 10.5-4.6 4 0.8L507.9 9.4l3.5-0.2L548.8-28l1.4-3.2 -6.7-1.9L534.3-41.2 534.3-41.2z"/><path id="path4032" d="M553.2-35c-0.2 0.8-1.9 8.8-1.9 8.8l13.1-1 -3.8-4.3 8.8-0.3 0.3 3.3 1.9-0.5 -0.5-4.3 5.9-2.1 0.5 2.7 4.8-2.4 -2.7-6.5h-4.9l-6.1-5.9 -6.1 0.2 -0.2 6.4 -4.6 5.7L553.2-35 553.2-35z"/><path id="path4038" fill="#1F1F1F" d="M570.3-119.9l-0.3 3.8 -3 1.9c0 0 14.2 6.1 14.3 5.4 0.2-0.6 3-3.5 3-3.5l-1.3-7.2c0 0-4-1.3-7.2-1.3s-5.6-0.3-5.6-0.3L570.3-119.9 570.3-119.9z"/><path id="path4034" fill="#0F0E10" d="M527.5-98.2l3.5 6.1c0 0 1.9-2.1 11.3-4 9.4-1.9 7.2-5.3 18.6-1.6 11.5 3.7 17.2 5.1 17.2 5.1l5.7-2.5 1.8-12.6 -5.1-1.6c0 0-6.4-3.3-12.1-3.8 -5.7-0.5-14.7 0.8-14.7 0.8v-1.6c0 0 7.8-0.6 9.2-3.1s-1.3-2.9-1.3-2.9 -13.8 3.6-19.7 8.1C536-107.5 527.3-98.2 527.5-98.2L527.5-98.2z"/><path id="path4040" fill="#786D7C" d="M531.3-92.5c0 0 18.7 26.8 19.8 26.3 1.1-0.5 15.9-3.6 15.9-3.6s-0.2 9 0.6 8.2c0.8-0.8 5.4-10.6 5.4-10.6l6.4-19.6c0 0-5.1-4.2-15.2-6.6s-16.7-2-23.2 0.8C534.5-94.7 531.1-92.2 531.3-92.5z"/><path id="path4036" fill="#866D80" d="M561.5-120c0 0 2.7 1.4-2.1 3.7s-6.4 2.7-6.4 2.7l0.5 1.4c0 0 9.2-1.4 13.9-0.2 4.6 1.3 13.7 4.3 13.7 4.3l-0.5-2.4 -12.2-4.4 2.6-1.6 0.2-4.5L561.5-120 561.5-120z"/><path id="path4042" fill="#1F2521" d="M603.6-93.9l-17.8 42 3.8 11.5 -3.5 1.6 0.3 0.3 37.3 8 -1-1.9 -1.9-1.3 0.6-2.5 1.6-0.3 -1-2.5c0 0-1.9-22-7-33.8C609.9-84.7 604.5-93.3 603.6-93.9L603.6-93.9z"/><path id="path4044" fill="#120E11" d="M583.5-10.8l37.9 1.6 -0.3 2.9h-1.9l-0.6 3.2 2.2 1c0 0-11.1 22.3-14.3 28 -3.2 5.7-10.2 14-13.7 16.2 -3.5 2.2-6.4 2.2-6.4 2.2l-7-52.2L583.5-10.8 583.5-10.8z"/><path id="path4046" fill="#120E11" d="M510.9 27.7l32.2-23.9 15 10.8 2.2-3.5 7.6 34.1 -3.8 8.6c0 0-18.8 1.6-26.1-0.6 -7.3-2.2-18.2-10.2-21.3-14S510.3 29 510.9 27.7L510.9 27.7z"/><path id="path4048" fill="#120E11" d="M513.8-80.5l3.8-0.6 21.7 36.6 -6.4 0.6L530.3-21 507.9-2.7l-7.8 4.9c0 0-3.2-24.8-0.6-42C502-57 513.8-80.2 513.8-80.5L513.8-80.5z"/><linearGradient id="path4064_1_" gradientUnits="userSpaceOnUse" x1="314.224" y1="-341.393" x2="342.55" y2="-341.711" gradientTransform="matrix(1 0 0 -1 186.142 -379.5275)"><stop offset="0" stop-color="#736470"/><stop offset="0.594" stop-color="#A79AA0"/><stop offset="1" stop-color="#958890"/></linearGradient><path id="path4064" fill="url(#path4064_1_)" d="M513.3-76.7c0 0-9.1 17.3-11 28.1 -1.9 10.7-4.3 19.5-2.7 30.1 1.6 10.6 3.9 19.1 3.9 19.1s5.2-3.5 11.3-7.6c6.1-4.1 7.6-7.1 7.6-7.1s-1.1-14-0.3-22.3c0.8-8.2 6.6-18.5 6.6-18.5l-10.2-18.1L513.3-76.7 513.3-76.7z"/><path id="path4050" d="M521.7-73l-4.5 1.4"/><path id="path4058" fill="#48383F" d="M521.9-73.5l-5 1.1 13.7 20c0 0-5.9 2.7-7.4 14.6s-0.2 21.4 0 21.8c0.2 0.5 6.3-5.2 6.3-5.2l1.8-2.7 2-20.9 2.9 0.5 3.2-1.1L521.9-73.5 521.9-73.5z"/><path id="path4060" d="M513.1-75.5l-2 32.4"/><path id="path3198" fill="#554446" d="M538.8 8.7l-5 2.7c0 0 3.8 5 11.5 5.9s12.4-0.7 12.4-0.7l-1.4-3.4 -2.5-1.8C553.9 11.4 550.7 14.8 538.8 8.7z"/><linearGradient id="path3200_1_" gradientUnits="userSpaceOnUse" x1="260.58" y1="-1886.742" x2="309.216" y2="-1886.742" gradientTransform="matrix(1 0 0 -1 254.9101 -1861.8223)"><stop offset="0" stop-color="#B4A5AA"/><stop offset="0.456" stop-color="#867B84"/><stop offset="0.534" stop-color="#675563"/><stop offset="0.761" stop-color="#443749"/><stop offset="0.831" stop-color="#978B99"/><stop offset="1" stop-color="#776A71"/></linearGradient><path id="path3200" fill="url(#path3200_1_)" d="M516 23.2l18-13.3c-1 0 4.9 6.3 11.3 7.2 3.5 0.5 12.4-1.1 12.4-1.1l6.3 21.2c1.8 0.5-16 3.6-24.3 2.7C528.5 38.7 512.3 25.1 516 23.2z"/><g id="g4175" transform="translate(17.236967,-1523.8596)"><path id="path4177" fill="#291F2A" d="M496.4 1467.8c0 0.8-0.6 1.4-1.3 1.4 -0.7 0-1.3-0.6-1.3-1.4 0-0.8 0.6-1.4 1.3-1.4C495.8 1466.3 496.4 1467 496.4 1467.8z"/><path id="path4179" fill="#E9E2EA" d="M496.2 1467.9c0 0.6-0.2 1.1-0.5 1.1s-0.5-0.5-0.5-1.1 0.2-1.1 0.5-1.1S496.2 1467.3 496.2 1467.9z"/></g><g id="g4181" transform="translate(14.696783,-1531.1173)"><path id="path4183" fill="#291F2A" d="M496.7 1468.6c0 0.8-0.6 1.4-1.3 1.4 -0.7 0-1.3-0.6-1.3-1.4 0-0.8 0.6-1.4 1.3-1.4S496.7 1467.9 496.7 1468.6z"/><path id="path4185" fill="#E9E2EA" d="M496.5 1468.8c0 0.6-0.2 1.1-0.5 1.1s-0.5-0.5-0.5-1.1 0.2-1.1 0.5-1.1S496.5 1468.2 496.5 1468.8z"/></g><g id="g4187" transform="translate(23.043103,-1541.278)"><path id="path4189" fill="#291F2A" d="M495.7 1469.9c0 0.8-0.6 1.4-1.3 1.4 -0.7 0-1.3-0.6-1.3-1.4s0.6-1.4 1.3-1.4S495.7 1469.1 495.7 1469.9z"/><path id="path4191" fill="#E9E2EA" d="M495.5 1470c0 0.6-0.2 1.1-0.5 1.1s-0.5-0.5-0.5-1.1 0.2-1.1 0.5-1.1S495.5 1469.4 495.5 1470z"/></g><g id="g4193" transform="translate(23.76887,-1532.7502)"><path id="path4195" fill="#291F2A" d="M495.6 1468.8c0 0.8-0.6 1.4-1.3 1.4 -0.7 0-1.3-0.6-1.3-1.4 0-0.8 0.6-1.4 1.3-1.4S495.6 1468.1 495.6 1468.8z"/><path id="path4197" fill="#E9E2EA" d="M495.4 1469c0 0.6-0.2 1.1-0.5 1.1s-0.5-0.5-0.5-1.1 0.2-1.1 0.5-1.1S495.4 1468.4 495.4 1469z"/></g><g id="g4199" transform="translate(25.220405,-1526.5812)"><path id="path4201" fill="#291F2A" d="M495.5 1468.1c0 0.8-0.6 1.4-1.3 1.4s-1.3-0.6-1.3-1.4 0.6-1.4 1.3-1.4C494.9 1466.7 495.5 1467.3 495.5 1468.1z"/><path id="path4203" fill="#E9E2EA" d="M495.2 1468.2c0 0.6-0.2 1.1-0.5 1.1 -0.3 0-0.5-0.5-0.5-1.1s0.2-1.1 0.5-1.1C495 1467.1 495.2 1467.6 495.2 1468.2z"/></g><g id="g4205" transform="translate(50.803692,-1557.0634)"><path id="path4207" fill="#291F2A" d="M492.3 1471.8c0 0.8-0.6 1.4-1.3 1.4s-1.3-0.6-1.3-1.4c0-0.8 0.6-1.4 1.3-1.4C491.7 1470.4 492.3 1471 492.3 1471.8z"/><path id="path4209" fill="#E9E2EA" d="M492.1 1472c0 0.6-0.2 1.1-0.5 1.1 -0.3 0-0.5-0.5-0.5-1.1s0.2-1.1 0.5-1.1C491.9 1470.9 492.1 1471.4 492.1 1472z"/></g><g id="g4211" transform="translate(52.799551,-1564.5025)"><path id="path4213" fill="#291F2A" d="M492.1 1472.7c0 0.8-0.6 1.4-1.3 1.4s-1.3-0.6-1.3-1.4c0-0.8 0.6-1.4 1.3-1.4C491.5 1471.3 492.1 1471.9 492.1 1472.7z"/><path id="path4215" fill="#E9E2EA" d="M491.8 1472.9c0 0.6-0.2 1.1-0.5 1.1 -0.3 0-0.5-0.5-0.5-1.1s0.2-1.1 0.5-1.1C491.6 1471.8 491.8 1472.3 491.8 1472.9z"/></g><g id="g4217" transform="translate(58.061362,-1552.7088)"><path id="path4219" fill="#291F2A" d="M491.4 1471.3c0 0.8-0.6 1.4-1.3 1.4 -0.7 0-1.3-0.6-1.3-1.4 0-0.8 0.6-1.4 1.3-1.4S491.4 1470.5 491.4 1471.3z"/><path id="path4221" fill="#E9E2EA" d="M491.2 1471.4c0 0.6-0.2 1.1-0.5 1.1 -0.3 0-0.5-0.5-0.5-1.1s0.2-1.1 0.5-1.1C491 1470.3 491.2 1470.8 491.2 1471.4z"/></g><g id="g4223" transform="translate(61.327314,-1558.8778)"><path id="path4225" fill="#291F2A" d="M491 1472c0 0.8-0.6 1.4-1.3 1.4 -0.7 0-1.3-0.6-1.3-1.4 0-0.8 0.6-1.4 1.3-1.4C490.5 1470.6 491 1471.2 491 1472z"/><path id="path4227" fill="#E9E2EA" d="M490.8 1472.2c0 0.6-0.2 1.1-0.5 1.1s-0.5-0.5-0.5-1.1 0.2-1.1 0.5-1.1S490.8 1471.6 490.8 1472.2z"/></g><g id="g4229" transform="translate(63.867498,-1564.3211)"><path id="path4231" fill="#291F2A" d="M490.7 1472.7c0 0.8-0.6 1.4-1.3 1.4s-1.3-0.6-1.3-1.4c0-0.8 0.6-1.4 1.3-1.4C490.1 1471.3 490.7 1471.9 490.7 1472.7z"/><path id="path4233" fill="#E9E2EA" d="M490.5 1472.9c0 0.6-0.2 1.1-0.5 1.1 -0.3 0-0.5-0.5-0.5-1.1s0.2-1.1 0.5-1.1C490.3 1471.8 490.5 1472.2 490.5 1472.9z"/></g><g id="g4235" transform="translate(68.947868,-1556.5191)"><path id="path4237" fill="#291F2A" d="M490.1 1471.8c0 0.8-0.6 1.4-1.3 1.4 -0.7 0-1.3-0.6-1.3-1.4s0.6-1.4 1.3-1.4S490.1 1471 490.1 1471.8z"/><path id="path4239" fill="#E9E2EA" d="M489.9 1471.9c0 0.6-0.2 1.1-0.5 1.1s-0.5-0.5-0.5-1.1 0.2-1.1 0.5-1.1S489.9 1471.3 489.9 1471.9z"/></g><g id="g4241" transform="translate(72.032377,-1561.7809)"><path id="path4243" fill="#291F2A" d="M489.7 1472.4c0 0.8-0.6 1.4-1.3 1.4s-1.3-0.6-1.3-1.4c0-0.8 0.6-1.4 1.3-1.4C489.1 1471 489.7 1471.6 489.7 1472.4z"/><path id="path4245" fill="#E9E2EA" d="M489.5 1472.6c0 0.6-0.2 1.1-0.5 1.1 -0.3 0-0.5-0.5-0.5-1.1s0.2-1.1 0.5-1.1C489.3 1471.4 489.5 1471.9 489.5 1472.6z"/></g><g id="g4247" transform="translate(76.749863,-1566.1355)"><path id="path4249" fill="#291F2A" d="M489.2 1472.9c0 0.8-0.6 1.4-1.3 1.4s-1.3-0.6-1.3-1.4c0-0.8 0.6-1.4 1.3-1.4C488.6 1471.5 489.2 1472.1 489.2 1472.9z"/><path id="path4251" fill="#E9E2EA" d="M488.9 1473.1c0 0.6-0.2 1.1-0.5 1.1 -0.3 0-0.5-0.5-0.5-1.1s0.2-1.1 0.5-1.1C488.7 1472 488.9 1472.5 488.9 1473.1z"/></g><g id="g4253" transform="translate(76.568421,-1551.8016)"><path id="path4255" fill="#291F2A" d="M489.2 1471.2c0 0.8-0.6 1.4-1.3 1.4s-1.3-0.6-1.3-1.4c0-0.8 0.6-1.4 1.3-1.4C488.6 1469.7 489.2 1470.4 489.2 1471.2z"/><path id="path4257" fill="#E9E2EA" d="M488.9 1471.3c0 0.6-0.2 1.1-0.5 1.1 -0.3 0-0.5-0.5-0.5-1.1s0.2-1.1 0.5-1.1C488.7 1470.2 488.9 1470.7 488.9 1471.3z"/></g><g id="g4259" transform="translate(80.923023,-1555.9748)"><path id="path4261" fill="#291F2A" d="M488.6 1471.7c0 0.8-0.6 1.4-1.3 1.4 -0.7 0-1.3-0.6-1.3-1.4s0.6-1.4 1.3-1.4S488.6 1470.9 488.6 1471.7z"/><path id="path4263" fill="#E9E2EA" d="M488.4 1471.8c0 0.6-0.2 1.1-0.5 1.1 -0.3 0-0.5-0.5-0.5-1.1s0.2-1.1 0.5-1.1C488.2 1470.7 488.4 1471.2 488.4 1471.8z"/></g><g id="g4265" transform="translate(85.096184,-1559.0593)"><path id="path4267" fill="#291F2A" d="M488.1 1472.1c0 0.8-0.6 1.4-1.3 1.4s-1.3-0.6-1.3-1.4c0-0.8 0.6-1.4 1.3-1.4C487.5 1470.6 488.1 1471.3 488.1 1472.1z"/><path id="path4269" fill="#E9E2EA" d="M487.9 1472.2c0 0.6-0.2 1.1-0.5 1.1s-0.5-0.5-0.5-1.1 0.2-1.1 0.5-1.1S487.9 1471.6 487.9 1472.2z"/></g><g id="g4019" transform="translate(19.142105,-1517.872)"><path id="path4021" fill="#291F2A" d="M496.2 1467c0 0.8-0.6 1.4-1.3 1.4s-1.3-0.6-1.3-1.4 0.6-1.4 1.3-1.4C495.6 1465.6 496.2 1466.2 496.2 1467z"/><path id="path4023" fill="#E9E2EA" d="M496 1467.2c0 0.6-0.2 1.1-0.5 1.1 -0.3 0-0.5-0.5-0.5-1.1s0.2-1.1 0.5-1.1C495.8 1466.1 496 1466.6 496 1467.2z"/></g><g id="g4025" transform="translate(11.975156,-1514.6968)"><path id="path4027" fill="#291F2A" d="M497.1 1466.6c0 0.8-0.6 1.4-1.3 1.4 -0.7 0-1.3-0.6-1.3-1.4 0-0.8 0.6-1.4 1.3-1.4S497.1 1465.8 497.1 1466.6z"/><path id="path4029" fill="#E9E2EA" d="M496.8 1466.8c0 0.6-0.2 1.1-0.5 1.1s-0.5-0.5-0.5-1.1 0.2-1.1 0.5-1.1S496.8 1466.2 496.8 1466.8z"/></g><g id="g4031" transform="translate(14.878224,-1509.0721)"><path id="path4033" fill="#291F2A" d="M496.7 1465.9c0 0.8-0.6 1.4-1.3 1.4 -0.7 0-1.3-0.6-1.3-1.4 0-0.8 0.6-1.4 1.3-1.4S496.7 1465.2 496.7 1465.9z"/><path id="path4035" fill="#E9E2EA" d="M496.5 1466.1c0 0.6-0.2 1.1-0.5 1.1 -0.3 0-0.5-0.5-0.5-1.1s0.2-1.1 0.5-1.1C496.3 1465 496.5 1465.5 496.5 1466.1z"/></g><g id="g4037" transform="translate(21.051384,-1503.9917)"><path id="path4039" fill="#291F2A" d="M496 1465.3c0 0.8-0.6 1.4-1.3 1.4s-1.3-0.6-1.3-1.4 0.6-1.4 1.3-1.4C495.4 1463.9 496 1464.5 496 1465.3z"/><path id="path4041" fill="#E9E2EA" d="M495.7 1465.5c0 0.6-0.2 1.1-0.5 1.1 -0.3 0-0.5-0.5-0.5-1.1s0.2-1.1 0.5-1.1C495.5 1464.4 495.7 1464.9 495.7 1465.5z"/></g><g id="g4043" transform="translate(7.3483906,-1500.9979)"><path id="path4045" fill="#291F2A" d="M497.6 1465c0 0.8-0.6 1.4-1.3 1.4s-1.3-0.6-1.3-1.4c0-0.8 0.6-1.4 1.3-1.4C497.1 1463.5 497.6 1464.2 497.6 1465z"/><path id="path4047" fill="#E9E2EA" d="M497.4 1465.1c0 0.6-0.2 1.1-0.5 1.1 -0.3 0-0.5-0.5-0.5-1.1s0.2-1.1 0.5-1.1C497.2 1464 497.4 1464.5 497.4 1465.1z"/></g><g id="g4049" transform="translate(11.793714,-1495.3732)"><path id="path4051" fill="#291F2A" d="M497.1 1464.3c0 0.8-0.6 1.4-1.3 1.4 -0.7 0-1.3-0.6-1.3-1.4 0-0.8 0.6-1.4 1.3-1.4S497.1 1463.5 497.1 1464.3z"/><path id="path4053" fill="#E9E2EA" d="M496.9 1464.4c0 0.6-0.2 1.1-0.5 1.1s-0.5-0.5-0.5-1.1 0.2-1.1 0.5-1.1S496.9 1463.8 496.9 1464.4z"/></g><g id="g4055" transform="translate(15.785432,-1492.0166)"><path id="path4057" fill="#291F2A" d="M496.6 1463.9c0 0.8-0.6 1.4-1.3 1.4 -0.7 0-1.3-0.6-1.3-1.4 0-0.8 0.6-1.4 1.3-1.4S496.6 1463.1 496.6 1463.9z"/><path id="path4059" fill="#E9E2EA" d="M496.4 1464c0 0.6-0.2 1.1-0.5 1.1 -0.3 0-0.5-0.5-0.5-1.1s0.2-1.1 0.5-1.1C496.2 1462.9 496.4 1463.4 496.4 1464z"/></g><g id="g4061" transform="translate(5.5339731,-1486.4826)"><path id="path4063" fill="#291F2A" d="M497.9 1463.2c0 0.8-0.6 1.4-1.3 1.4s-1.3-0.6-1.3-1.4c0-0.8 0.6-1.4 1.3-1.4C497.3 1461.8 497.9 1462.4 497.9 1463.2z"/><path id="path4065" fill="#E9E2EA" d="M497.6 1463.3c0 0.6-0.2 1.1-0.5 1.1 -0.3 0-0.5-0.5-0.5-1.1s0.2-1.1 0.5-1.1C497.4 1462.2 497.6 1462.7 497.6 1463.3z"/></g><g id="g4067" transform="translate(9.8885752,-1482.2187)"><path id="path4069" fill="#291F2A" d="M497.3 1462.7c0 0.8-0.6 1.4-1.3 1.4s-1.3-0.6-1.3-1.4c0-0.8 0.6-1.4 1.3-1.4C496.7 1461.2 497.3 1461.9 497.3 1462.7z"/><path id="path4071" fill="#E9E2EA" d="M497.1 1462.8c0 0.6-0.2 1.1-0.5 1.1 -0.3 0-0.5-0.5-0.5-1.1s0.2-1.1 0.5-1.1C496.9 1461.7 497.1 1462.2 497.1 1462.8z"/></g><g id="g4073" transform="translate(15.241107,-1479.3156)"><path id="path4075" fill="#291F2A" d="M496.7 1462.3c0 0.8-0.6 1.4-1.3 1.4s-1.3-0.6-1.3-1.4c0-0.8 0.6-1.4 1.3-1.4C496.1 1460.9 496.7 1461.5 496.7 1462.3z"/><path id="path4077" fill="#E9E2EA" d="M496.4 1462.5c0 0.6-0.2 1.1-0.5 1.1 -0.3 0-0.5-0.5-0.5-1.1s0.2-1.1 0.5-1.1C496.2 1461.4 496.4 1461.9 496.4 1462.5z"/></g><g id="g4079" transform="translate(9.7978543,-1471.4229)"><path id="path4081" fill="#291F2A" d="M497.3 1461.3c0 0.8-0.6 1.4-1.3 1.4s-1.3-0.6-1.3-1.4 0.6-1.4 1.3-1.4C496.8 1459.9 497.3 1460.6 497.3 1461.3z"/><path id="path4083" fill="#E9E2EA" d="M497.1 1461.5c0 0.6-0.2 1.1-0.5 1.1s-0.5-0.5-0.5-1.1 0.2-1.1 0.5-1.1S497.1 1460.9 497.1 1461.5z"/></g><g id="g4085" transform="translate(15.241107,-1469.0642)"><path id="path4087" fill="#291F2A" d="M496.7 1461.1c0 0.8-0.6 1.4-1.3 1.4s-1.3-0.6-1.3-1.4 0.6-1.4 1.3-1.4C496.1 1459.6 496.7 1460.3 496.7 1461.1z"/><path id="path4089" fill="#E9E2EA" d="M496.4 1461.2c0 0.6-0.2 1.1-0.5 1.1 -0.3 0-0.5-0.5-0.5-1.1s0.2-1.1 0.5-1.1C496.2 1460.1 496.4 1460.6 496.4 1461.2z"/></g><g id="g4091" transform="translate(26.581217,-1436.2232)"><path id="path4093" fill="#291F2A" d="M495.3 1457c0 0.8-0.6 1.4-1.3 1.4s-1.3-0.6-1.3-1.4 0.6-1.4 1.3-1.4C494.7 1455.6 495.3 1456.2 495.3 1457z"/><path id="path4095" fill="#E9E2EA" d="M495.1 1457.2c0 0.6-0.2 1.1-0.5 1.1 -0.3 0-0.5-0.5-0.5-1.1s0.2-1.1 0.5-1.1C494.8 1456.1 495.1 1456.6 495.1 1457.2z"/></g><g id="g4097" transform="translate(32.750236,-1439.5799)"><path id="path4099" fill="#291F2A" d="M494.5 1457.4c0 0.8-0.6 1.4-1.3 1.4 -0.7 0-1.3-0.6-1.3-1.4 0-0.8 0.6-1.4 1.3-1.4S494.5 1456.7 494.5 1457.4z"/><path id="path4101" fill="#E9E2EA" d="M494.3 1457.6c0 0.6-0.2 1.1-0.5 1.1 -0.3 0-0.5-0.5-0.5-1.1s0.2-1.1 0.5-1.1C494.1 1456.5 494.3 1457 494.3 1457.6z"/></g><g id="g4103" transform="translate(37.739885,-1442.3015)"><path id="path4105" fill="#291F2A" d="M493.9 1457.8c0 0.8-0.6 1.4-1.3 1.4 -0.7 0-1.3-0.6-1.3-1.4 0-0.8 0.6-1.4 1.3-1.4S493.9 1457 493.9 1457.8z"/><path id="path4107" fill="#E9E2EA" d="M493.7 1457.9c0 0.6-0.2 1.1-0.5 1.1s-0.5-0.5-0.5-1.1 0.2-1.1 0.5-1.1S493.7 1457.3 493.7 1457.9z"/></g><g id="g4109" transform="translate(36.106909,-1427.6047)"><path id="path4111" fill="#291F2A" d="M494.1 1456c0 0.8-0.6 1.4-1.3 1.4s-1.3-0.6-1.3-1.4c0-0.8 0.6-1.4 1.3-1.4C493.5 1454.6 494.1 1455.2 494.1 1456z"/><path id="path4113" fill="#E9E2EA" d="M493.9 1456.1c0 0.6-0.2 1.1-0.5 1.1 -0.3 0-0.5-0.5-0.5-1.1s0.2-1.1 0.5-1.1C493.7 1455 493.9 1455.5 493.9 1456.1z"/></g><g id="g4115" transform="translate(41.096557,-1431.5965)"><path id="path4117" fill="#291F2A" d="M493.5 1456.5c0 0.8-0.6 1.4-1.3 1.4 -0.7 0-1.3-0.6-1.3-1.4 0-0.8 0.6-1.4 1.3-1.4S493.5 1455.7 493.5 1456.5z"/><path id="path4119" fill="#E9E2EA" d="M493.3 1456.6c0 0.6-0.2 1.1-0.5 1.1 -0.3 0-0.5-0.5-0.5-1.1s0.2-1.1 0.5-1.1C493.1 1455.5 493.3 1456 493.3 1456.6z"/></g><g id="g4121" transform="translate(45.723322,-1436.1325)"><path id="path4123" fill="#291F2A" d="M493 1457c0 0.8-0.6 1.4-1.3 1.4 -0.7 0-1.3-0.6-1.3-1.4s0.6-1.4 1.3-1.4C492.4 1455.6 493 1456.2 493 1457z"/><path id="path4125" fill="#E9E2EA" d="M492.7 1457.2c0 0.6-0.2 1.1-0.5 1.1s-0.5-0.5-0.5-1.1 0.2-1.1 0.5-1.1S492.7 1456.6 492.7 1457.2z"/></g><g id="g4127" transform="translate(45.995485,-1421.7986)"><path id="path4129" fill="#291F2A" d="M492.9 1455.3c0 0.8-0.6 1.4-1.3 1.4s-1.3-0.6-1.3-1.4 0.6-1.4 1.3-1.4C492.3 1453.8 492.9 1454.5 492.9 1455.3z"/><path id="path4131" fill="#E9E2EA" d="M492.7 1455.4c0 0.6-0.2 1.1-0.5 1.1 -0.3 0-0.5-0.5-0.5-1.1s0.2-1.1 0.5-1.1C492.5 1454.3 492.7 1454.8 492.7 1455.4z"/></g><g id="g4133" transform="translate(51.257295,-1426.6068)"><path id="path4135" fill="#291F2A" d="M492.3 1455.9c0 0.8-0.6 1.4-1.3 1.4s-1.3-0.6-1.3-1.4c0-0.8 0.6-1.4 1.3-1.4C491.7 1454.4 492.3 1455.1 492.3 1455.9z"/><path id="path4137" fill="#E9E2EA" d="M492 1456c0 0.6-0.2 1.1-0.5 1.1 -0.3 0-0.5-0.5-0.5-1.1s0.2-1.1 0.5-1.1C491.8 1454.9 492 1455.4 492 1456z"/></g><g id="g4139" transform="translate(54.976851,-1432.5037)"><path id="path4141" fill="#291F2A" d="M491.8 1456.6c0 0.8-0.6 1.4-1.3 1.4 -0.7 0-1.3-0.6-1.3-1.4 0-0.8 0.6-1.4 1.3-1.4S491.8 1455.8 491.8 1456.6z"/><path id="path4143" fill="#E9E2EA" d="M491.6 1456.7c0 0.6-0.2 1.1-0.5 1.1s-0.5-0.5-0.5-1.1 0.2-1.1 0.5-1.1S491.6 1456.1 491.6 1456.7z"/></g><g id="g4145" transform="translate(58.333524,-1423.8852)"><path id="path4147" fill="#291F2A" d="M491.4 1455.5c0 0.8-0.6 1.4-1.3 1.4 -0.7 0-1.3-0.6-1.3-1.4s0.6-1.4 1.3-1.4S491.4 1454.7 491.4 1455.5z"/><path id="path4149" fill="#E9E2EA" d="M491.2 1455.7c0 0.6-0.2 1.1-0.5 1.1s-0.5-0.5-0.5-1.1 0.2-1.1 0.5-1.1S491.2 1455.1 491.2 1455.7z"/></g><g id="g4151" transform="translate(61.871638,-1429.2377)"><path id="path4153" fill="#291F2A" d="M491 1456.2c0 0.8-0.6 1.4-1.3 1.4s-1.3-0.6-1.3-1.4 0.6-1.4 1.3-1.4C490.4 1454.8 491 1455.4 491 1456.2z"/><path id="path4155" fill="#E9E2EA" d="M490.7 1456.3c0 0.6-0.2 1.1-0.5 1.1 -0.3 0-0.5-0.5-0.5-1.1s0.2-1.1 0.5-1.1C490.5 1455.2 490.7 1455.7 490.7 1456.3z"/></g><g id="g4157" transform="translate(64.048939,-1435.7696)"><path id="path4159" fill="#291F2A" d="M490.7 1457c0 0.8-0.6 1.4-1.3 1.4 -0.7 0-1.3-0.6-1.3-1.4 0-0.8 0.6-1.4 1.3-1.4C490.1 1455.5 490.7 1456.2 490.7 1457z"/><path id="path4161" fill="#E9E2EA" d="M490.5 1457.1c0 0.6-0.2 1.1-0.5 1.1s-0.5-0.5-0.5-1.1 0.2-1.1 0.5-1.1S490.5 1456.5 490.5 1457.1z"/></g><g id="g4163" transform="translate(68.494262,-1422.5244)"><path id="path4165" fill="#291F2A" d="M490.2 1455.4c0 0.8-0.6 1.4-1.3 1.4 -0.7 0-1.3-0.6-1.3-1.4 0-0.8 0.6-1.4 1.3-1.4S490.2 1454.6 490.2 1455.4z"/><path id="path4167" fill="#E9E2EA" d="M489.9 1455.5c0 0.6-0.2 1.1-0.5 1.1 -0.3 0-0.5-0.5-0.5-1.1s0.2-1.1 0.5-1.1C489.7 1454.4 489.9 1454.9 489.9 1455.5z"/></g><g id="g4169" transform="translate(71.39733,-1429.6913)"><path id="path4171" fill="#291F2A" d="M489.8 1456.2c0 0.8-0.6 1.4-1.3 1.4 -0.7 0-1.3-0.6-1.3-1.4 0-0.8 0.6-1.4 1.3-1.4S489.8 1455.4 489.8 1456.2z"/><path id="path4173" fill="#E9E2EA" d="M489.6 1456.4c0 0.6-0.2 1.1-0.5 1.1 -0.3 0-0.5-0.5-0.5-1.1s0.2-1.1 0.5-1.1C489.4 1455.3 489.6 1455.8 489.6 1456.4z"/></g><path id="path4401" fill="#432F38" d="M544.2-76.1l6.7 8.9 15.9-3.7 0.5 8.4 6.1-11.1c0 0-4.5-4.8-14-4.8C549.7-78.3 544.5-76.1 544.2-76.1L544.2-76.1z"/><path id="path4403" fill="#432F38" d="M596.9-78.6c0 0 2.9-0.8 5.1 1.8s5.1 13.5 5.1 13.5l1.4 28.2 -18.2-4.8 -0.5-20.7L596.9-78.6 596.9-78.6z"/><path id="path4405" fill="#291F27" d="M599-68.1l-6.2 5.3 0.5 23.1 18.5 5.1 -1.3-30.9 -7.8 1.4L599-68.1 599-68.1z"/><path id="path4409" fill="#463548" d="M594.7-59.8l2.4 0.5c0 0 7.3-2.9 9.4-4.5 2.1-1.6 4.9-3.3 4.9-3.3l-6.2-0.6c0 0-3 4.1-4.9 5.6S594.5-59.5 594.7-59.8L594.7-59.8z"/><path id="path4411" fill="#493C50" d="M602.3-52.8l8 0.5 3 10.4 -5.3 5.3 -8.6-1.4L602.3-52.8 602.3-52.8z"/><path id="path4413" fill="#735F74" d="M596.4-60.2l-0.2 6.8 8.4 0.2c0 0 5.3 1.4 4.9 6.2s-1.8 8.9-4.9 9.2c-3.2 0.3-6.1 0.3-6.1 0.3l19.3 4.3c0 0 1-13.2-1.1-20.1 -2.1-6.8-2.7-11.5-4-13.1 -1.3-1.6-3.3-3-4.9-0.3 -1.6 2.7-4.1 4.1-7.3 5.3S596.4-59.5 596.4-60.2L596.4-60.2z"/><path id="path4415" fill="#735F74" d="M616-10.2c0 0-4.1 14.8-5.3 16.1 -1.1 1.3-3.3 2.2-4 0.6C606.1 5 594-2.5 594-2.5l1.1-5.4 11 0.5 1.4-2.9L616-10.2 616-10.2z"/><path id="path4417" fill="#524853" d="M583.7-5.9L580.3-2l3.3 25.6 5.9-7 -1.6-4.9 -2.7-0.6L584 2.7l3-1.1L583.7-5.9z"/><path id="path4419" fill="#150B13" d="M587.8-9.7H613c0 0-7.3 17.5-8.3 20.2 -1 2.7-8.9 8.6-8.9 8.6l-3.7-0.3c0 0-3-0.6-3.8-3.3 -0.8-2.7-4.1-8-3.5-10S588-9.4 587.8-9.7L587.8-9.7z"/><path id="path4421" fill="#403543" d="M590.4-11.1c0 0-3.5 12.3-1.4 15.3 2.1 3 3.2 3.8 3.2 3.8l-2.2 5.6 6.4-1.8 -1.9 4.1c0 0 5.3 0.8 6.4-1.1s8.6-11.9 8.6-11.9h-16.1L592.4-11 590.4-11.1z"/><radialGradient id="path4455_1_" cx="869.971" cy="-1300.504" r="25.001" gradientTransform="matrix(1.1529 6.565485e-002 0.2022 -3.5509 337.3735 -4814.6123)" gradientUnits="userSpaceOnUse"><stop offset="0" stop-color="#1C1714"/><stop offset="0.765" stop-color="#000000"/><stop offset="0.885" stop-color="#594E5E"/><stop offset="1" stop-color="#68626E"/></radialGradient><path id="path4455" fill="url(#path4455_1_)" d="M1083-206.2c-5.4 2-11.3 8.1-13.5 12.2s-14.2 49.3-13.3 56.8c0.9 7.4 3.8 40.3 6.8 47.3 2.9 7 9 16 11.9 16.9 2.9 0.9 5 0.7 8.3-3.2 3.4-3.8 14.2-12.8 18-26.8 3.8-14 6.3-38.7 4.1-50.4s-9-37.2-12.6-42.8c-3.6-5.6-5.2-9.7-6.8-9.5C1084.4-205.6 1083-206.4 1083-206.2L1083-206.2z"/><path id="path4473" fill="#3F2426" d="M1122.7-119l-5.3 1.8c0 0-1.4 17.2-5.5 26.5 -3.6 8.1-6 12.7-9.7 16.2 -3.7 3.4-5.7 5.4-5.7 5.4l0.5 4.5c0 0 10.8-7.2 15.6-18.6 4.8-11.3 7.6-18.3 8.8-25.6C1122.6-116.2 1122.4-118.8 1122.7-119L1122.7-119z"/><path id="path4475" fill="#3F2426" d="M1070.6-75.1c0 0 1.5 4.1 6.1 7.3 4.6 3.3 8.4 4.4 8.4 4.4l-0.4-4.3C1084.7-67.6 1076.7-68.7 1070.6-75.1z"/><g id="g4576" transform="translate(0,-1500)"><radialGradient id="path4477_1_" cx="906.693" cy="241.293" r="16.325" gradientTransform="matrix(1.1561 0 7.449058e-006 -3.0945 23.6974 2108.5193)" gradientUnits="userSpaceOnUse"><stop offset="0" stop-color="#BDBFD6"/><stop offset="0.875" stop-color="#D0CEDC"/><stop offset="0.927" stop-color="#9693A0"/><stop offset="1" stop-color="#BEC0D6"/></radialGradient><path id="path4477" fill="url(#path4477_1_)" d="M1069.4 1313.1c-2.8 0-3.9 4.2-6.3 6.4 -5.3 12.1-4.9 23.8-4.9 40.6 0 18.5-0.4 32.8 6 45.3 -2.4 1.3 3.1 5.2 5.3 5.2 11.8 0 21.4-21.9 21.4-48.8S1081.2 1313.1 1069.4 1313.1L1069.4 1313.1z"/><g id="g4510" transform="matrix(0.60359165,0,0,0.75447681,820.53377,138.19907)"><path id="path4512" fill="#291F2A" d="M406.1 1675.7c0 0.8-0.6 1.4-1.3 1.4s-1.3-0.6-1.3-1.4c0-0.8 0.6-1.4 1.3-1.4C405.5 1674.3 406.1 1674.9 406.1 1675.7z"/><path id="path4514" fill="#E9E2EA" d="M405.9 1675.9c0 0.6-0.2 1.1-0.5 1.1s-0.5-0.5-0.5-1.1 0.2-1.1 0.5-1.1S405.9 1675.3 405.9 1675.9z"/></g><g id="g4516" transform="matrix(0.60359165,0,0,0.75447681,823.61828,139.83204)"><path id="path4518" fill="#291F2A" d="M405.5 1675.4c0 0.8-0.6 1.4-1.3 1.4 -0.7 0-1.3-0.6-1.3-1.4s0.6-1.4 1.3-1.4S405.5 1674.7 405.5 1675.4z"/><path id="path4520" fill="#E9E2EA" d="M405.3 1675.6c0 0.6-0.2 1.1-0.5 1.1 -0.3 0-0.5-0.5-0.5-1.1s0.2-1.1 0.5-1.1C405 1674.5 405.3 1675 405.3 1675.6z"/></g><g id="g4522" transform="matrix(0.60359165,0,0,0.75447681,825.79558,136.74753)"><path id="path4524" fill="#291F2A" d="M405.1 1675.9c0 0.8-0.6 1.4-1.3 1.4s-1.3-0.6-1.3-1.4c0-0.8 0.6-1.4 1.3-1.4C404.5 1674.5 405.1 1675.2 405.1 1675.9z"/><path id="path4526" fill="#E9E2EA" d="M404.8 1676.1c0 0.6-0.2 1.1-0.5 1.1 -0.3 0-0.5-0.5-0.5-1.1s0.2-1.1 0.5-1.1C404.6 1675 404.8 1675.5 404.8 1676.1z"/></g><g id="g4528" transform="matrix(0.60359165,0,0,0.75447681,826.88423,140.55781)"><path id="path4530" fill="#291F2A" d="M404.8 1675.3c0 0.8-0.6 1.4-1.3 1.4 -0.7 0-1.3-0.6-1.3-1.4s0.6-1.4 1.3-1.4S404.8 1674.5 404.8 1675.3z"/><path id="path4532" fill="#E9E2EA" d="M404.6 1675.5c0 0.6-0.2 1.1-0.5 1.1 -0.3 0-0.5-0.5-0.5-1.1s0.2-1.1 0.5-1.1C404.4 1674.4 404.6 1674.9 404.6 1675.5z"/></g><g id="g4534" transform="matrix(0.60359165,0,0,0.75447681,829.96874,137.29186)"><path id="path4536" fill="#291F2A" d="M404.2 1675.9c0 0.8-0.6 1.4-1.3 1.4s-1.3-0.6-1.3-1.4c0-0.8 0.6-1.4 1.3-1.4C403.6 1674.4 404.2 1675.1 404.2 1675.9z"/><path id="path4538" fill="#E9E2EA" d="M404 1676c0 0.6-0.2 1.1-0.5 1.1 -0.3 0-0.5-0.5-0.5-1.1s0.2-1.1 0.5-1.1C403.8 1674.9 404 1675.4 404 1676z"/></g><g id="g4540" transform="matrix(0.60359165,0,0,0.75447681,833.77901,132.57437)"><path id="path4542" fill="#291F2A" d="M403.4 1676.6c0 0.8-0.6 1.4-1.3 1.4 -0.7 0-1.3-0.6-1.3-1.4 0-0.8 0.6-1.4 1.3-1.4C402.9 1675.2 403.4 1675.8 403.4 1676.6z"/><path id="path4544" fill="#E9E2EA" d="M403.2 1676.8c0 0.6-0.2 1.1-0.5 1.1s-0.5-0.5-0.5-1.1 0.2-1.1 0.5-1.1S403.2 1676.2 403.2 1676.8z"/></g><g id="g4546" transform="matrix(0.60359165,0,0,0.75447681,835.95632,48.385399)"><path id="path4548" fill="#291F2A" d="M403 1690.3c0 0.8-0.6 1.4-1.3 1.4 -0.7 0-1.3-0.6-1.3-1.4 0-0.8 0.6-1.4 1.3-1.4S403 1689.5 403 1690.3z"/><path id="path4550" fill="#E9E2EA" d="M402.8 1690.4c0 0.6-0.2 1.1-0.5 1.1 -0.3 0-0.5-0.5-0.5-1.1s0.2-1.1 0.5-1.1C402.5 1689.3 402.8 1689.8 402.8 1690.4z"/></g><g id="g4552" transform="matrix(0.60359165,0,0,0.75447681,833.41613,43.849355)"><path id="path4554" fill="#291F2A" d="M403.5 1691c0 0.8-0.6 1.4-1.3 1.4s-1.3-0.6-1.3-1.4c0-0.8 0.6-1.4 1.3-1.4C402.9 1689.6 403.5 1690.2 403.5 1691z"/><path id="path4556" fill="#E9E2EA" d="M403.3 1691.2c0 0.6-0.2 1.1-0.5 1.1 -0.3 0-0.5-0.5-0.5-1.1s0.2-1.1 0.5-1.1C403.1 1690.1 403.3 1690.5 403.3 1691.2z"/></g><g id="g4558" transform="matrix(0.60359165,0,0,0.75447681,838.31506,54.191535)"><path id="path4560" fill="#291F2A" d="M402.5 1689.3c0 0.8-0.6 1.4-1.3 1.4s-1.3-0.6-1.3-1.4c0-0.8 0.6-1.4 1.3-1.4C401.9 1687.9 402.5 1688.5 402.5 1689.3z"/><path id="path4562" fill="#E9E2EA" d="M402.3 1689.5c0 0.6-0.2 1.1-0.5 1.1 -0.3 0-0.5-0.5-0.5-1.1s0.2-1.1 0.5-1.1C402.1 1688.4 402.3 1688.9 402.3 1689.5z"/></g></g><path id="path4608" fill="#C3C1CF" d="M1122-131.2l-29.5-15.9c0 0 5.6-22.5 7.9-29.3 2.3-6.8 9-24.9 9-24.9l-3.9-4.7c0 0-17.8 45.8-19 47 -1.2 1.1-3.7 1.6-4.1 0.3 -0.3-1.2-12.9-37.9-12.9-37.9l-5.4 12.3c0 0 7.5 28.9 8.7 31.8s4.7 10.2 4.7 10.2l-18.1 29.7 1 10.6 17.7-22.2 4.6-1.2 9.2 61.1 5.3-2.1c0 0-2.7-17.2-4.2-31s-2-30.6-2-30.6l32.5 5.3L1122-131.2 1122-131.2z"/><path id="path4471" fill="#100E0F" d="M1124.6-148.4l-4.8 0.5 -0.2 3.8 -12.3 0.5 -0.5 4.5 10.7 2.2 4.8 6.4 -16.2-8 -0.5 1.3 9.7 5.4 -0.6 8.1 8.3 1.8c0 0 2.1-6.8 1.6-11.1C1124.2-137.4 1124.6-148.1 1124.6-148.4L1124.6-148.4z"/><path id="path4634" fill="#FEFDFD" d="M1067.6-151.8l-2 15.3 -1.6 6.3 -7 13.5 1.4 4.5 19.6-27 -13.1-46.8 -6.1 20.7 6.1-5 3.2 19.4L1067.6-151.8 1067.6-151.8z"/><path id="path4610" fill="#2D1B19" d="M1062.4-179.5c0 0 6.8 21.8 6.1 25.4 -0.7 3.6-1.1 2.7-1.1 3.8 0 1.1 0.9-2.7 2.5-1.8 1.6 0.9 3.6 1.1 3.6 1.1l-8.6-30.2L1062.4-179.5 1062.4-179.5z"/><path id="path4612" fill="#2D1B19" d="M1069.1-149l-1 11c0 0 2.2-1.9 5.1-2.5 2.9-0.6 5.1-0.3 5.1-0.3L1069.1-149 1069.1-149z"/><path id="path4614" fill="#2D1B19" d="M1079.7-143.6l-1 6.5 7-0.5 -2.4-2.9 6.2-0.6 1.9-2.2 -6.1-9.2 -1.8 8.3L1079.7-143.6 1079.7-143.6z"/><path id="path4628" fill="#FEFDFD" d="M1088.5-206.8c0 0 0.7 2.9-0.7 4.5 -1.4 1.6-1.8 3.6-1.8 3.6l2.5 3.2 4.7 0.5 -4.1 15.1 -3.6 14.2 -1.8-2.5 -5.2 2.3 5.4 10.6L1105-205l-5.6 2.5L1088.5-206.8 1088.5-206.8z"/><path id="path4616" fill="#2D1B19" d="M1088.8-179.9c0 0-7 10.8-8 11.9 -1 1.1 3.8-0.5 3.8-0.5l0.8 4.1 4.3-15.4L1088.8-179.9z"/><path id="path4618" fill="#2D1B19" d="M1068.4-109.8l-2.7 3.7c0 0 9.6-1 9.9-2.5C1075.9-110.3 1071.8-108.4 1068.4-109.8z"/><path id="path4620" fill="#2D1B19" d="M1072.7-114.1l-0.6 1.1 5.4 6.1 4.5 21.7 -1-24.7 -1.9 1.8L1072.7-114.1 1072.7-114.1z"/><path id="path4622" fill="#2D1B19" d="M1066.7-136.4l0.8 5.4 -9.1 14.8 0.8 1 10-16.2L1066.7-136.4 1066.7-136.4z"/><path id="path4624" fill="#2D1B19" d="M1100.6-200.9l5.3-4.5 -19.9 49 -0.5-1.3 16.9-42.8L1100.6-200.9 1100.6-200.9z"/><path id="path4626" fill="#2D1B19" d="M1092.8-145.7l26.1 14.5 -1.6 0.8 -25.2-14L1092.8-145.7 1092.8-145.7z"/><path id="path4630" fill="#FEFDFD" d="M1090.8-127.5l32.9 6.8 -0.5 2.9 -5.9 1.1 -11.5-0.9 4.3-2.9 -19.6-5L1090.8-127.5 1090.8-127.5z"/><path id="path4632" fill="#FEFDFD" d="M1073-115.4l7 7.4 1.6-1.8 1.8 32.7 -5.9 2.3 1.4 3.6c0 0 3.8 3.8 7 3.2 3.2-0.7 3.6-5 3.6-5l-7.2-50.4 -1.4-1.4L1073-115.4 1073-115.4z"/><g id="g4650" transform="translate(0,-1500)"><path id="path4652" fill="#808080" d="M1082.2 1371c0 3.6-1.7 6.5-3.8 6.5 -2.1 0-3.8-2.9-3.8-6.5 0-3.6 1.7-6.5 3.8-6.5S1082.2 1367.4 1082.2 1371z"/><path id="path4654" fill="#D8D7D7" d="M1081.5 1370.6c0 3.1-1.3 5.6-2.9 5.6 -1.6 0-2.9-2.5-2.9-5.6 0-3.1 1.3-5.6 2.9-5.6C1080.2 1365.1 1081.5 1367.6 1081.5 1370.6z"/><path id="path4656" fill="#EAEAEA" d="M1080 1370.6c0 2.2-0.9 3.9-2.1 3.9s-2.1-1.7-2.1-3.9c0-2.2 0.9-3.9 2.1-3.9S1080 1368.5 1080 1370.6z"/><path id="path4658" fill="#7F7F7F" d="M1081.2 1370.7c0 2.3-0.8 4.1-1.8 4.1 -1 0-1.8-1.9-1.8-4.1 0-2.3 0.8-4.1 1.8-4.1C1080.4 1366.6 1081.2 1368.4 1081.2 1370.7z"/></g><g id="g4660" transform="translate(9.6164131,-1487.2991)"><path id="path4662" fill="#808080" d="M1081 1369.4c0 3.6-1.7 6.5-3.8 6.5 -2.1 0-3.8-2.9-3.8-6.5 0-3.6 1.7-6.5 3.8-6.5C1079.3 1362.9 1081 1365.8 1081 1369.4z"/><path id="path4664" fill="#D8D7D7" d="M1080.4 1369.1c0 3.1-1.3 5.6-2.9 5.6 -1.6 0-2.9-2.5-2.9-5.6 0-3.1 1.3-5.6 2.9-5.6C1079.1 1363.5 1080.4 1366 1080.4 1369.1z"/><path id="path4666" fill="#EAEAEA" d="M1078.9 1369.1c0 2.2-0.9 3.9-2.1 3.9 -1.1 0-2.1-1.7-2.1-3.9 0-2.2 0.9-3.9 2.1-3.9C1077.9 1365.2 1078.9 1366.9 1078.9 1369.1z"/><path id="path4668" fill="#7F7F7F" d="M1080 1369.2c0 2.3-0.8 4.1-1.8 4.1 -1 0-1.8-1.9-1.8-4.1s0.8-4.1 1.8-4.1S1080 1366.9 1080 1369.2z"/></g><g id="g4690" transform="translate(18.869943,-1506.0756)"><path id="path4692" fill="#808080" d="M1079.9 1371.7c0 3.6-1.7 6.5-3.8 6.5s-3.8-2.9-3.8-6.5c0-3.6 1.7-6.5 3.8-6.5C1078.2 1365.2 1079.9 1368.1 1079.9 1371.7z"/><path id="path4694" fill="#D8D7D7" d="M1079.2 1371.4c0 3.1-1.3 5.6-2.9 5.6 -1.6 0-2.9-2.5-2.9-5.6 0-3.1 1.3-5.6 2.9-5.6C1077.9 1365.8 1079.2 1368.3 1079.2 1371.4z"/><path id="path4696" fill="#EAEAEA" d="M1077.7 1371.4c0 2.2-0.9 3.9-2.1 3.9 -1.1 0-2.1-1.7-2.1-3.9s0.9-3.9 2.1-3.9C1076.8 1367.5 1077.7 1369.2 1077.7 1371.4z"/><path id="path4698" fill="#7F7F7F" d="M1078.9 1371.5c0 2.3-0.8 4.1-1.8 4.1 -1 0-1.8-1.9-1.8-4.1 0-2.3 0.8-4.1 1.8-4.1S1078.9 1369.2 1078.9 1371.5z"/></g><g id="g4680" transform="translate(13.245248,-1528.1235)"><path id="path4682" fill="#808080" d="M1080.6 1374.4c0 3.6-1.7 6.5-3.8 6.5 -2.1 0-3.8-2.9-3.8-6.5 0-3.6 1.7-6.5 3.8-6.5C1078.9 1367.9 1080.6 1370.8 1080.6 1374.4z"/><path id="path4684" fill="#D8D7D7" d="M1079.9 1374.1c0 3.1-1.3 5.6-2.9 5.6 -1.6 0-2.9-2.5-2.9-5.6 0-3.1 1.3-5.6 2.9-5.6C1078.6 1368.5 1079.9 1371 1079.9 1374.1z"/><path id="path4686" fill="#EAEAEA" d="M1078.4 1374.1c0 2.2-0.9 3.9-2.1 3.9 -1.1 0-2.1-1.7-2.1-3.9 0-2.2 0.9-3.9 2.1-3.9C1077.5 1370.2 1078.4 1371.9 1078.4 1374.1z"/><path id="path4688" fill="#7F7F7F" d="M1079.5 1374.2c0 2.3-0.8 4.1-1.8 4.1 -1 0-1.8-1.9-1.8-4.1 0-2.3 0.8-4.1 1.8-4.1S1079.5 1371.9 1079.5 1374.2z"/></g><g id="g4644" transform="translate(1.9958593,-1524.6761)"><path id="path4636" fill="#808080" d="M1082 1374c0 3.6-1.7 6.5-3.8 6.5 -2.1 0-3.8-2.9-3.8-6.5 0-3.6 1.7-6.5 3.8-6.5C1080.3 1367.5 1082 1370.4 1082 1374z"/><path id="path4638" fill="#D8D7D7" d="M1081.3 1373.6c0 3.1-1.3 5.6-2.9 5.6 -1.6 0-2.9-2.5-2.9-5.6s1.3-5.6 2.9-5.6C1080 1368.1 1081.3 1370.6 1081.3 1373.6z"/><path id="path4640" fill="#EAEAEA" d="M1079.8 1373.7c0 2.2-0.9 3.9-2.1 3.9 -1.1 0-2.1-1.7-2.1-3.9s0.9-3.9 2.1-3.9C1078.9 1369.8 1079.8 1371.5 1079.8 1373.7z"/><path id="path4642" fill="#7F7F7F" d="M1080.9 1373.7c0 2.3-0.8 4.1-1.8 4.1s-1.8-1.9-1.8-4.1c0-2.3 0.8-4.1 1.8-4.1C1080.1 1369.6 1080.9 1371.5 1080.9 1373.7z"/></g><g id="g4719" transform="translate(0.18144176,-1500.3629)"><path id="path4721" fill="#634C56" d="M560.1 1454.9c0 4.8-2.9 8.7-6.4 8.7s-6.4-3.9-6.4-8.7 2.9-8.7 6.4-8.7S560.1 1450.1 560.1 1454.9z"/><path id="path4723" fill="#FFF2FF" d="M558.5 1456.3c0 3.4-2.2 6.2-5 6.2s-5-2.8-5-6.2 2.2-6.2 5-6.2S558.5 1452.9 558.5 1456.3z"/><path id="path4725" fill="#6F5F6C" d="M557.2 1456.3c0 2.5-1.6 4.5-3.7 4.5 -2 0-3.7-2-3.7-4.5 0-2.5 1.6-4.5 3.7-4.5C555.6 1451.8 557.2 1453.8 557.2 1456.3z"/><path id="path4727" fill="#13140F" d="M556.1 1455.8c0 1.4-1.1 2.5-2.4 2.5 -1.3 0-2.4-1.1-2.4-2.5 0-1.4 1.1-2.5 2.4-2.5C555 1453.3 556.1 1454.4 556.1 1455.8z"/><path id="path4729" fill="#F5E8F2" d="M556.6 1457.2c0 1.4-1.1 2.5-2.5 2.5s-2.5-1.1-2.5-2.5 1.1-2.5 2.5-2.5C555.5 1454.7 556.6 1455.8 556.6 1457.2z"/></g><g id="g4731" transform="matrix(0.99697547,0.07771682,-0.07771682,0.99697547,92.817997,-1543.0556)"><path id="path4733" fill="#634C56" d="M604.6 1450.1c0 4.8-2.9 8.7-6.4 8.7s-6.4-3.9-6.4-8.7c0-4.8 2.9-8.7 6.4-8.7S604.6 1445.3 604.6 1450.1z"/><path id="path4735" fill="#FFF2FF" d="M603 1451.5c0 3.4-2.2 6.2-5 6.2 -2.8 0-5-2.8-5-6.2s2.2-6.2 5-6.2C600.7 1445.3 603 1448 603 1451.5z"/><path id="path4737" fill="#6F5F6C" d="M601.7 1451.5c0 2.5-1.6 4.5-3.7 4.5s-3.7-2-3.7-4.5c0-2.5 1.6-4.5 3.7-4.5S601.7 1449 601.7 1451.5z"/><path id="path4739" fill="#13140F" d="M600.6 1451c0 1.4-1.1 2.5-2.4 2.5 -1.3 0-2.4-1.1-2.4-2.5s1.1-2.5 2.4-2.5C599.5 1448.4 600.6 1449.6 600.6 1451z"/><path id="path4741" fill="#F5E8F2" d="M601.1 1452.4c0 1.4-1.1 2.5-2.5 2.5s-2.5-1.1-2.5-2.5c0-1.4 1.1-2.5 2.5-2.5S601.1 1451 601.1 1452.4z"/></g><g id="g4743" transform="matrix(0.80238772,0.5968031,-0.5968031,0.80238772,638.01614,-1611.8786)"><path id="path4745" fill="#634C56" d="M911.2 1303.7c0 4.8-2.9 8.7-6.4 8.7s-6.4-3.9-6.4-8.7 2.9-8.7 6.4-8.7S911.2 1298.9 911.2 1303.7z"/><path id="path4747" fill="#FFF2FF" d="M909.6 1305c0 3.4-2.2 6.2-5 6.2 -2.8 0-5-2.8-5-6.2 0-3.4 2.2-6.2 5-6.2C907.4 1298.8 909.6 1301.6 909.6 1305z"/><path id="path4749" fill="#6F5F6C" d="M908.4 1305c0 2.5-1.6 4.5-3.7 4.5 -2 0-3.7-2-3.7-4.5 0-2.5 1.6-4.5 3.7-4.5C906.7 1300.6 908.4 1302.6 908.4 1305z"/><path id="path4751" fill="#13140F" d="M907.3 1304.5c0 1.4-1.1 2.5-2.4 2.5 -1.3 0-2.4-1.1-2.4-2.5s1.1-2.5 2.4-2.5C906.2 1302 907.3 1303.1 907.3 1304.5z"/><path id="path4753" fill="#F5E8F2" d="M907.7 1306c0 1.4-1.1 2.5-2.5 2.5s-2.5-1.1-2.5-2.5 1.1-2.5 2.5-2.5S907.7 1304.6 907.7 1306z"/></g><g id="g4755" transform="translate(19.232826,-1452.2808)"><path id="path4757" fill="#634C56" d="M557.7 1449c0 4.8-2.9 8.7-6.4 8.7s-6.4-3.9-6.4-8.7 2.9-8.7 6.4-8.7S557.7 1444.3 557.7 1449z"/><path id="path4759" fill="#FFF2FF" d="M556.2 1450.4c0 3.4-2.2 6.2-5 6.2 -2.8 0-5-2.8-5-6.2s2.2-6.2 5-6.2C553.9 1444.2 556.2 1447 556.2 1450.4z"/><path id="path4761" fill="#6F5F6C" d="M554.9 1450.4c0 2.5-1.6 4.5-3.7 4.5 -2 0-3.7-2-3.7-4.5 0-2.5 1.6-4.5 3.7-4.5C553.2 1445.9 554.9 1447.9 554.9 1450.4z"/><path id="path4763" fill="#13140F" d="M553.8 1449.9c0 1.4-1.1 2.5-2.4 2.5 -1.3 0-2.4-1.1-2.4-2.5 0-1.4 1.1-2.5 2.4-2.5C552.7 1447.4 553.8 1448.5 553.8 1449.9z"/><path id="path4765" fill="#F5E8F2" d="M554.2 1451.4c0 1.4-1.1 2.5-2.5 2.5s-2.5-1.1-2.5-2.5 1.1-2.5 2.5-2.5C553.1 1448.8 554.2 1450 554.2 1451.4z"/></g><g id="g4712" transform="matrix(0.84279829,0.53822955,-0.53822955,0.84279829,527.8054,-1604.0774)"><path id="path4700" fill="#634C56" d="M880.7 1327.1c0 4.8-2.9 8.7-6.4 8.7s-6.4-3.9-6.4-8.7 2.9-8.7 6.4-8.7S880.7 1322.4 880.7 1327.1z"/><path id="path4704" fill="#FFF2FF" d="M879.1 1328.5c0 3.4-2.2 6.2-5 6.2 -2.8 0-5-2.8-5-6.2 0-3.4 2.2-6.2 5-6.2C876.9 1322.3 879.1 1325.1 879.1 1328.5z"/><path id="path4706" fill="#6F5F6C" d="M877.8 1328.5c0 2.5-1.6 4.5-3.7 4.5s-3.7-2-3.7-4.5c0-2.5 1.6-4.5 3.7-4.5S877.8 1326 877.8 1328.5z"/><path id="path4708" fill="#13140F" d="M876.7 1328c0 1.4-1.1 2.5-2.4 2.5 -1.3 0-2.4-1.1-2.4-2.5s1.1-2.5 2.4-2.5C875.6 1325.5 876.7 1326.6 876.7 1328z"/><path id="path4710" fill="#F5E8F2" d="M877.2 1329.5c0 1.4-1.1 2.5-2.5 2.5s-2.5-1.1-2.5-2.5 1.1-2.5 2.5-2.5S877.2 1328.1 877.2 1329.5z"/></g><g id="g4280" transform="translate(-1608.4693,28.12624)"><path id="path3477" fill="#FFFFFF" d="M1684.8-153.6l-3.1 8.9 10.2 3.1 -3.5 6.6 2.7 1.2 0.4 1.4 8.7-7.1h10l1.4-1.2h6.8l12-6.6 -0.4-3.9 -26.8 1.4 -3.5 4.2 1.3-4.1L1684.8-153.6 1684.8-153.6z"/><path id="path3480" fill="#FF2A2A" d="M1705.9-149.7l-7.5 6.6 10.8-0.8 1-1.2h6.9l11-5.8L1705.9-149.7 1705.9-149.7z"/><path id="path3482" fill="none" stroke="#000000" stroke-width="1.5" d="M1730.7-149l-11 5.2 -8.3 1 -1.2 1.4 -10 0.2 -8.1 6.2"/><path id="path4256" fill="#8D8D8D" d="M1684.4-153.4l-2.1 7.9 12.9 3.5 4.6-7.7L1684.4-153.4z"/><path id="path4258" fill="#B3B3B3" stroke="#000000" stroke-width="1.5" d="M1697.4-142.4l-6.2 4.8"/><path id="path4262" fill="#FFD42A" d="M1701.8-145.1l4.1-2.1 2.7 1.2 -3.1 1.9L1701.8-145.1z"/><path id="path4260" fill="#FFD42A" d="M1715.8-146.8l3-3.5 2.9 0.1 -2.1 2.9L1715.8-146.8 1715.8-146.8z"/><path id="path4266" d="M1684.1-147.9l-0.6 1.9 2.8 0.3 0.8-1.7L1684.1-147.9 1684.1-147.9z"/><path id="path4268" d="M1687.9-146.5l-0.6 1.9 2.8 0.3 0.8-1.7L1687.9-146.5 1687.9-146.5z"/><path id="path4270" d="M1693.2-145.2l-0.6 1.9 2.8 0.3 0.8-1.7L1693.2-145.2 1693.2-145.2z"/><path id="path4272" d="M1691.4-147.7l-0.6 1.9 2.8 0.3 0.8-1.7L1691.4-147.7 1691.4-147.7z"/><path id="path4274" d="M1687-149.2l-0.6 1.9 2.8 0.3 0.8-1.7L1687-149.2 1687-149.2z"/><path id="path4276" d="M1685.3-152.1l-0.6 1.9 2.8 0.3 0.8-1.7L1685.3-152.1 1685.3-152.1z"/><path id="path4278" d="M1690.6-150.5l-0.6 1.9 2.8 0.3 0.8-1.7L1690.6-150.5 1690.6-150.5z"/><path id="path4264" d="M1694.6-149.4l-0.6 1.9 2.8 0.3 0.8-1.7L1694.6-149.4 1694.6-149.4z"/></g></g><path fill="#A50404" d="M312.2 331V105h93c20.6 0 36.8 1.2 48.9 3.6 12 2.4 22.1 6.3 30.1 11.6 10.4 7.1 18.2 15.8 23.3 26.2 5.1 10.4 7.7 22.8 7.7 37.1 0 25.3-7.5 44.6-22.4 58.1 -14.9 13.5-36.5 20.2-64.6 20.2h-43.4V331H312.2zM384.7 206.6h23.3c15.1 0 25.3-1.7 30.4-5.1 5.1-3.4 7.7-9.4 7.7-17.9 0-8.7-2.5-14.7-7.4-18.1s-15.1-5.1-30.7-5.1h-23.3V206.6z"/><path fill="#A50404" d="M544 331V105h72.6v166h98.6v60H544z"/><path fill="#A50404" d="M363 500.1h32.8c-1 14.2-6 25.2-15 33.1 -9 7.8-21.3 11.8-36.7 11.8 -17.3 0-30.9-5.1-40.8-15.2 -9.9-10.1-14.9-24-14.9-41.6 0-17.6 4.9-31.4 14.7-41.6 9.8-10.2 23.2-15.2 40.1-15.2 15.6 0 27.9 3.8 36.9 11.3 9 7.5 14 18.3 15.1 32.3H362c-0.5-5.5-2.3-9.7-5.3-12.5 -3.1-2.8-7.4-4.2-13-4.2 -6.8 0-11.9 2.5-15.3 7.4 -3.4 5-5.1 12.4-5.1 22.4 0 9.8 1.8 17.2 5.4 22.3 3.6 5 8.9 7.5 15.9 7.5 5.4 0 9.6-1.5 12.8-4.6S362.4 505.8 363 500.1z"/><path fill="#A50404" d="M465.4 541.9l-2-7.6c-4.1 3.6-8.4 6.2-13.1 7.9s-10 2.6-15.8 2.6c-9 0-15.9-2.2-20.8-6.6 -4.9-4.4-7.4-10.7-7.4-18.7 0-7.9 2.4-13.7 7.3-17.4 4.8-3.8 14-6.5 27.4-8.2 1.7-0.2 4-0.5 6.9-0.8 10-1.1 15-3.7 15-7.8 0-2.3-0.9-4-2.7-5 -1.8-1-4.7-1.6-8.7-1.6 -3.3 0-5.8 0.6-7.5 1.9 -1.8 1.3-2.8 3.3-3.1 6h-30.9c0.1-8.9 3.8-15.7 11-20.3 7.2-4.6 17.7-6.8 31.6-6.8 6.5 0 12.6 0.6 18.1 1.8 5.5 1.2 9.9 2.9 12.9 4.9 3.8 2.5 6.4 5.4 7.9 8.6 1.5 3.2 2.3 7.8 2.3 13.7v44.4c0 1.5 0.3 2.8 0.9 3.9 0.6 1.1 1.4 2.1 2.6 2.8v2.3H465.4zM462.5 506.4c-3 1.2-7.1 2.4-12.1 3.7 -7.9 2.1-11.9 4.9-11.9 8.4 0 2.2 0.8 4 2.3 5.3 1.6 1.3 3.8 1.9 6.7 1.9 5.3 0 9.1-1.2 11.5-3.7 2.4-2.4 3.6-6.3 3.6-11.6 0-1.1 0-2 0-2.5C462.7 507.3 462.6 506.8 462.5 506.4z"/><path fill="#A50404" d="M512.2 541.9v-79.6h29.2v14.5c2.1-5.8 5.1-10 9-12.6 3.9-2.7 9.2-4 15.7-4h2.9v31.6c-1.2-0.1-2.3-0.2-3.4-0.3 -1.1-0.1-2.1-0.1-3.1-0.1 -6.4 0-11.1 1.4-14.1 4.3 -3 2.9-4.5 7.4-4.5 13.5v32.7H512.2z"/><path fill="#A50404" d="M631.6 541.9V434h41.9c10.6 0 18.6 0.5 23.8 1.4 5.2 1 9.7 2.5 13.6 4.7 7.5 4.4 13.1 10.6 16.8 18.5 3.8 8 5.6 17.8 5.6 29.4 0 12.2-2.3 22.5-7 30.8 -4.7 8.3-11.5 14.5-20.6 18.6 -3.5 1.6-7.9 2.8-13.2 3.4 -5.3 0.7-13.8 1-25.5 1H631.6zM666.3 514.6h9.3c8.6 0 14.6-1.9 18-5.8 3.3-3.9 5-10.8 5-20.7 0-9.7-1.7-16.6-5.1-20.7 -3.4-4.1-9.2-6.1-17.4-6.1h-9.7V514.6z"/><path fill="#A50404" d="M801.6 518.3h30.3c-2.2 8.7-7 15.3-14.5 19.7 -7.4 4.5-17.3 6.7-29.5 6.7 -13.7 0-24.5-3.8-32.6-11.4 -8-7.6-12-17.8-12-30.7 0-13.4 4.1-23.9 12.3-31.7 8.2-7.7 19.4-11.6 33.5-11.6 14.2 0 25.3 4.2 33.3 12.6 8 8.4 12 20.1 12 35v1.9l-59.4 0.1c0.1 5.1 1.5 9 4 11.8 2.5 2.8 6.1 4.1 10.6 4.1 3.1 0 5.6-0.6 7.7-1.7C799.5 522.1 800.9 520.5 801.6 518.3zM775.1 493.1h28.2c-0.3-4.9-1.7-8.6-4.1-11.1 -2.4-2.5-5.8-3.7-10.3-3.7 -4.2 0-7.4 1.3-9.9 3.9C776.6 484.8 775.3 488.5 775.1 493.1z"/><path fill="#A50404" d="M904.2 541.9l-2-7.6c-4.1 3.6-8.4 6.2-13.1 7.9s-10 2.6-15.8 2.6c-9 0-15.9-2.2-20.8-6.6 -4.9-4.4-7.4-10.7-7.4-18.7 0-7.9 2.4-13.7 7.3-17.4 4.8-3.8 14-6.5 27.4-8.2 1.7-0.2 4-0.5 6.9-0.8 10-1.1 15-3.7 15-7.8 0-2.3-0.9-4-2.7-5 -1.8-1-4.7-1.6-8.7-1.6 -3.3 0-5.8 0.6-7.5 1.9 -1.8 1.3-2.8 3.3-3.1 6h-30.9c0.1-8.9 3.8-15.7 11-20.3 7.2-4.6 17.7-6.8 31.6-6.8 6.5 0 12.6 0.6 18.1 1.8 5.5 1.2 9.9 2.9 12.9 4.9 3.8 2.5 6.4 5.4 7.9 8.6 1.5 3.2 2.3 7.8 2.3 13.7v44.4c0 1.5 0.3 2.8 0.9 3.9 0.6 1.1 1.4 2.1 2.6 2.8v2.3H904.2zM901.3 506.4c-3 1.2-7.1 2.4-12.1 3.7 -7.9 2.1-11.9 4.9-11.9 8.4 0 2.2 0.8 4 2.3 5.3 1.6 1.3 3.8 1.9 6.7 1.9 5.3 0 9.1-1.2 11.5-3.7 2.4-2.4 3.6-6.3 3.6-11.6 0-1.1 0-2 0-2.5C901.5 507.3 901.4 506.8 901.3 506.4z"/><path fill="#A50404" d="M951.6 541.9V434h31.9v107.9H951.6z"/><path fill="#A50404" d="M1055.6 518.3h30.3c-2.2 8.7-7 15.3-14.5 19.7 -7.4 4.5-17.3 6.7-29.5 6.7 -13.7 0-24.5-3.8-32.6-11.4 -8-7.6-12-17.8-12-30.7 0-13.4 4.1-23.9 12.3-31.7 8.2-7.7 19.4-11.6 33.5-11.6 14.2 0 25.3 4.2 33.3 12.6 8 8.4 12 20.1 12 35v1.9l-59.4 0.1c0.1 5.1 1.5 9 4 11.8 2.5 2.8 6.1 4.1 10.6 4.1 3.1 0 5.6-0.6 7.7-1.7C1053.4 522.1 1054.8 520.5 1055.6 518.3zM1029 493.1h28.2c-0.3-4.9-1.7-8.6-4.1-11.1 -2.4-2.5-5.8-3.7-10.3-3.7 -4.2 0-7.4 1.3-9.9 3.9C1030.5 484.8 1029.2 488.5 1029 493.1z"/><path fill="#A50404" d="M1101.6 541.9v-79.6h29.2v14.5c2.1-5.8 5.1-10 9-12.6 3.9-2.7 9.2-4 15.7-4h2.9v31.6c-1.2-0.1-2.3-0.2-3.4-0.3 -1.1-0.1-2.1-0.1-3.1-0.1 -6.4 0-11.1 1.4-14.1 4.3 -3 2.9-4.5 7.4-4.5 13.5v32.7H1101.6z"/></svg>